<?xml version="1.0" encoding="utf-8"?>
<!-- Generator: Adobe Illustrator 27.5.0, SVG Export Plug-In . SVG Version: 6.00 Build 0)  -->
<svg version="1.1" xmlns="http://www.w3.org/2000/svg" xmlns:xlink="http://www.w3.org/1999/xlink" x="0px" y="0px"
	 viewBox="0 0 750 500" style="enable-background:new 0 0 750 500;" xml:space="preserve">
<g id="BACKGROUND">
</g>
<g id="OBJECTS">
	<rect style="fill:#FFFFFF;" width="750" height="500"/>
	<g>
		<g>
			<g>
				<path style="fill:#F4F8FC;" d="M487.323,432.736c1.843,0,1.846-2.864,0-2.864C485.48,429.872,485.477,432.736,487.323,432.736
					L487.323,432.736z"/>
			</g>
		</g>
		<path style="fill:#EDF4FC;" d="M98.057,499.887c-23.843-2.981-46.843-26.792-57.293-46.739
			c-13.341-25.465-12.397-55.811-3.107-82.67c11.319-32.725,43.573-48.36,73.397-61.882c24.66-11.18,50.156-20.874,72.945-35.597
			c26.87-17.359,49.422-41.568,65.011-69.787c14.282-25.852,22.941-55.152,41.304-78.188c16.669-20.911,41.696-35.292,68.397-39.405
			c28.606-4.406,55.683,3.089,76.966,22.31c4.616,4.168,8.894,8.701,12.874,13.472c18.829,22.572,33.329,49.391,56.383,67.462
			c22.921,17.966,51.677,24.529,78.4,34.624c12.529,4.733,25.78,8.199,37.759,14.504c31.313,16.48,58.96,41.042,76.992,71.665
			c18.125,30.782,25.032,67.621,20.784,103.146c-2.356,19.701-8.51,39.036-19.142,55.864c-9.589,15.177-24.044,26.397-41.383,31.284
			c-8.979,0-17.958,0-26.936,0c-23.031,0-46.062,0-69.092,0c-32.086,0-64.173,0-96.259,0c-36.145,0-72.291,0-108.436,0
			c-35.208,0-70.416,0-105.624,0c-29.274,0-58.549,0-87.823,0c-18.344,0-36.689,0-55.033,0c-3.433,0-7.119,0.381-10.536,0
			C98.421,499.931,98.239,499.91,98.057,499.887z"/>
		<g>
			<g style="opacity:0.25;">
				<path style="fill:#2490BF;" d="M500.607,119.606h-76.351c-2.389,0-4.326,1.937-4.326,4.326v20.773
					c0,2.389,1.937,4.326,4.326,4.326h56.769l18.038,21.75l-5.017-21.75h6.56c2.389,0,4.326-1.937,4.326-4.326v-20.773
					C504.933,121.543,502.996,119.606,500.607,119.606z"/>
				<path style="fill:#2490BF;" d="M445.783,133.876c0,2.212-1.793,4.005-4.005,4.005c-2.212,0-4.005-1.793-4.005-4.005
					c0-2.212,1.793-4.005,4.005-4.005C443.99,129.871,445.783,131.664,445.783,133.876z"/>
				<path style="fill:#2490BF;" d="M464.248,133.876c0,2.212-1.793,4.005-4.005,4.005c-2.212,0-4.005-1.793-4.005-4.005
					c0-2.212,1.793-4.005,4.005-4.005C462.455,129.871,464.248,131.664,464.248,133.876z"/>
				<path style="fill:#2490BF;" d="M482.713,133.876c0,2.212-1.793,4.005-4.005,4.005c-2.212,0-4.005-1.793-4.005-4.005
					c0-2.212,1.793-4.005,4.005-4.005C480.92,129.871,482.713,131.664,482.713,133.876z"/>
			</g>
			<g>
				<g>
					<path style="fill:#0090C9;" d="M500.607,113.111h-76.351c-2.389,0-4.326,1.937-4.326,4.326v20.773
						c0,2.389,1.937,4.326,4.326,4.326h56.769l18.038,21.75l-5.017-21.75h6.56c2.389,0,4.326-1.937,4.326-4.326v-20.773
						C504.933,115.048,502.996,113.111,500.607,113.111z"/>
					<g>
						<path style="fill:#FFFFFF;" d="M445.783,127.381c0,2.212-1.793,4.005-4.005,4.005c-2.212,0-4.005-1.793-4.005-4.005
							c0-2.212,1.793-4.005,4.005-4.005C443.99,123.376,445.783,125.169,445.783,127.381z"/>
						<path style="fill:#FFFFFF;" d="M464.248,127.381c0,2.212-1.793,4.005-4.005,4.005c-2.212,0-4.005-1.793-4.005-4.005
							c0-2.212,1.793-4.005,4.005-4.005C462.455,123.376,464.248,125.169,464.248,127.381z"/>
						<path style="fill:#FFFFFF;" d="M482.713,127.381c0,2.212-1.793,4.005-4.005,4.005c-2.212,0-4.005-1.793-4.005-4.005
							c0-2.212,1.793-4.005,4.005-4.005C480.92,123.376,482.713,125.169,482.713,127.381z"/>
					</g>
				</g>
			</g>
		</g>
		<g>
			<g style="opacity:0.25;">
				<path style="fill:#2490BF;" d="M668.25,119.606h-76.351c-2.389,0-4.326,1.937-4.326,4.326v20.773
					c0,2.389,1.937,4.326,4.326,4.326h56.769l-4.134,21.75l17.155-21.75h6.56c2.389,0,4.326-1.937,4.326-4.326v-20.773
					C672.576,121.543,670.639,119.606,668.25,119.606z"/>
				<path style="fill:#2490BF;" d="M615.615,134.956c0,2.212-1.793,4.005-4.005,4.005c-2.212,0-4.005-1.793-4.005-4.005
					c0-2.212,1.793-4.005,4.005-4.005C613.822,130.951,615.615,132.744,615.615,134.956z"/>
				<path style="fill:#2490BF;" d="M634.079,134.956c0,2.212-1.793,4.005-4.005,4.005c-2.212,0-4.005-1.793-4.005-4.005
					c0-2.212,1.793-4.005,4.005-4.005C632.286,130.951,634.079,132.744,634.079,134.956z"/>
				<path style="fill:#2490BF;" d="M652.544,134.956c0,2.212-1.793,4.005-4.005,4.005c-2.212,0-4.005-1.793-4.005-4.005
					c0-2.212,1.793-4.005,4.005-4.005C650.751,130.951,652.544,132.744,652.544,134.956z"/>
			</g>
			<g>
				<g>
					<path style="fill:#0090C9;" d="M668.25,113.111h-76.351c-2.389,0-4.326,1.937-4.326,4.326v20.773
						c0,2.389,1.937,4.326,4.326,4.326h56.769l-4.134,21.75l17.155-21.75h6.56c2.389,0,4.326-1.937,4.326-4.326v-20.773
						C672.576,115.048,670.639,113.111,668.25,113.111z"/>
					<g>
						<path style="fill:#FFFFFF;" d="M615.615,128.46c0,2.212-1.793,4.005-4.005,4.005c-2.212,0-4.005-1.793-4.005-4.005
							c0-2.212,1.793-4.005,4.005-4.005C613.822,124.456,615.615,126.249,615.615,128.46z"/>
						<path style="fill:#FFFFFF;" d="M634.079,128.46c0,2.212-1.793,4.005-4.005,4.005c-2.212,0-4.005-1.793-4.005-4.005
							c0-2.212,1.793-4.005,4.005-4.005C632.286,124.456,634.079,126.249,634.079,128.46z"/>
						<path style="fill:#FFFFFF;" d="M652.544,128.46c0,2.212-1.793,4.005-4.005,4.005c-2.212,0-4.005-1.793-4.005-4.005
							c0-2.212,1.793-4.005,4.005-4.005C650.751,124.456,652.544,126.249,652.544,128.46z"/>
					</g>
				</g>
			</g>
		</g>
		<g>
			<g style="opacity:0.25;">
				<path style="fill:#2490BF;" d="M361.511,334.2H285.16c-2.389,0-4.326-1.937-4.326-4.326v-20.773
					c0-2.389,1.937-4.326,4.326-4.326h56.769l25.32-21.75l-12.299,21.75h6.56c2.389,0,4.326,1.937,4.326,4.326v20.773
					C365.837,332.263,363.9,334.2,361.511,334.2z"/>
				<path style="fill:#2490BF;" d="M308.876,320.008c0-2.212-1.793-4.005-4.005-4.005c-2.212,0-4.005,1.793-4.005,4.005
					c0,2.212,1.793,4.005,4.005,4.005C307.083,324.013,308.876,322.22,308.876,320.008z"/>
				<path style="fill:#2490BF;" d="M327.34,320.008c0-2.212-1.793-4.005-4.005-4.005c-2.212,0-4.005,1.793-4.005,4.005
					c0,2.212,1.793,4.005,4.005,4.005C325.547,324.013,327.34,322.22,327.34,320.008z"/>
				<path style="fill:#2490BF;" d="M345.805,320.008c0-2.212-1.793-4.005-4.005-4.005c-2.212,0-4.005,1.793-4.005,4.005
					c0,2.212,1.793,4.005,4.005,4.005C344.012,324.013,345.805,322.22,345.805,320.008z"/>
			</g>
			<g>
				<g>
					<path style="fill:#0090C9;" d="M361.511,327.704H285.16c-2.389,0-4.326-1.937-4.326-4.326v-20.773
						c0-2.389,1.937-4.326,4.326-4.326h56.769l25.32-21.75l-12.299,21.75h6.56c2.389,0,4.326,1.937,4.326,4.326v20.773
						C365.837,325.768,363.9,327.704,361.511,327.704z"/>
					<g>
						<path style="fill:#FFFFFF;" d="M308.876,313.513c0-2.212-1.793-4.005-4.005-4.005c-2.212,0-4.005,1.793-4.005,4.005
							c0,2.212,1.793,4.005,4.005,4.005C307.083,317.518,308.876,315.725,308.876,313.513z"/>
						<path style="fill:#FFFFFF;" d="M327.34,313.513c0-2.212-1.793-4.005-4.005-4.005c-2.212,0-4.005,1.793-4.005,4.005
							c0,2.212,1.793,4.005,4.005,4.005C325.547,317.518,327.34,315.725,327.34,313.513z"/>
						<path style="fill:#FFFFFF;" d="M345.805,313.513c0-2.212-1.793-4.005-4.005-4.005c-2.212,0-4.005,1.793-4.005,4.005
							c0,2.212,1.793,4.005,4.005,4.005C344.012,317.518,345.805,315.725,345.805,313.513z"/>
					</g>
				</g>
			</g>
		</g>
		<g>
			<g>
				<g>
					<g>
						<g>
							<path style="fill:#808080;" d="M531.572,377.766c-0.497,12.014-1.092,26.952-1.817,38.954c2.555,0,3.833,0,6.388,0
								c0.718-11.999,1.308-26.934,1.799-38.944C535.394,377.773,534.12,377.771,531.572,377.766z"/>
							<path style="fill:#B0B0B0;" d="M521.847,377.75c-16.822-0.028-33.643-0.057-50.465-0.088
								c-0.546,12.049-1.193,27.023-1.976,39.059c16.866,0,33.731,0,50.597,0c3.901,0,5.851,0,9.752,0
								c0.725-12.002,1.32-26.941,1.817-38.954C527.682,377.76,525.737,377.757,521.847,377.75z"/>
							<path style="fill:#B0B0B0;" d="M633.002,366.893c5.512,5.461,6.145,6.333,11.637,11.807
								c6.394-58.208,11.453-116.549,18.741-174.658c1.377-9.651-1.811-19.543-9.107-25.774l0,0
								C645.407,241.137,639.779,303.781,633.002,366.893z"/>
							<path style="fill:#969696;" d="M633.002,366.893c5.512,5.461,11.637,11.807,11.637,11.807l-255.512-0.47
								c0,0-4.902-5.712-9.608-11.337C464.014,367.228,548.508,366.608,633.002,366.893z"/>
							<g>
								<path style="fill:#E3E3E3;" d="M379.52,366.893c84.494,0.335,168.988-0.285,253.483,0
									c1.184-10.84,1.746-16.761,2.851-27.486c-84.369-0.596-168.738,0.653-253.107,0
									C381.708,348.694,380.637,357.615,379.52,366.893z"/>
								<path style="fill:#1A1A1A;" d="M402.744,178.268c-8.728,52.932-14.067,107.842-19.998,161.139
									c84.368,0.653,168.738-0.596,253.107,0c5.532-54.163,10.822-107.215,18.42-161.139
									C570.43,178.335,486.587,178.01,402.744,178.268z"/>
							</g>
							<g>
								<path style="fill:#C9C9C9;" d="M642.924,187.732c-77.237-0.207-154.474-0.038-231.712-0.11
									c-0.668,4.147-0.993,6.232-1.629,10.427c77.263,0.402,154.527,0.569,231.789,1.079
									C641.977,194.586,642.286,192.308,642.924,187.732z"/>
								<path style="fill:#FFFFFF;" d="M412.961,195.412c0.318-2.068,0.478-3.099,0.804-5.156
									c66.025,0.133,132.051,0.098,198.077,0.264c-0.309,2.23-0.461,3.344-0.762,5.568C545.04,195.79,479,195.684,412.961,195.412
									z"/>
								<path style="fill:#373B4A;" d="M409.584,198.049c-6.376,43.441-10.966,88.041-15.764,131.677
									c77.685,0.695,155.37-0.647,233.055,0c4.449-43.898,8.822-86.838,14.497-130.598
									C564.11,198.618,486.846,198.451,409.584,198.049z"/>
							</g>
							<g>
								<path style="fill:#FFDF87;" d="M515.148,204.884c-29.882-0.177-59.764-0.356-89.647-0.561
									c-3.203,16.344-6.07,32.753-8.809,49.18c30.775,0.45,61.55,0.875,92.325,1.294
									C510.897,238.141,512.882,221.493,515.148,204.884z"/>
								<path style="fill:#7FB8FA;" d="M416.692,253.504c-0.573,3.443-0.857,5.171-1.423,8.638
									c30.928,0.456,61.856,0.886,92.785,1.31c0.382-3.468,0.574-5.199,0.963-8.654
									C478.242,254.379,447.467,253.954,416.692,253.504z"/>
							</g>
							<g>
								<g>
									<path style="fill:#FFFFFF;" d="M620.733,220.074c-1.535,8.762-11.113,14.871-20.043,14.997
										c-8.343,0.117-16.906-7.048-15.656-15.384c1.339-8.93,11.097-15.141,20.131-15.052
										C612.848,204.711,622.227,211.549,620.733,220.074z"/>
									<path style="fill:#F45B5B;" d="M612.3,217.335c-2.384-0.025-3.576-0.038-5.959-0.062c0.294-2.04,0.442-3.061,0.741-5.104
										c0.089-0.607-0.408-1.104-1.11-1.11c-1.429-0.013-2.143-0.019-3.571-0.032c-0.702-0.006-1.347,0.48-1.44,1.086
										c-0.316,2.04-0.472,3.059-0.782,5.096c-2.382-0.024-3.572-0.036-5.953-0.06c-0.707-0.007-1.359,0.477-1.457,1.081
										c-0.199,1.229-0.297,1.844-0.494,3.073c-0.097,0.604,0.402,1.1,1.114,1.107c2.397,0.027,3.596,0.04,5.995,0.067
										c-0.305,2.035-0.456,3.053-0.756,5.087c-0.089,0.604,0.421,1.101,1.139,1.11c1.462,0.018,2.193,0.027,3.655,0.045
										c0.718,0.009,1.369-0.474,1.453-1.079c0.283-2.036,0.426-3.054,0.715-5.092c2.4,0.027,3.6,0.041,6,0.069
										c0.713,0.008,1.356-0.476,1.436-1.083c0.163-1.234,0.245-1.851,0.41-3.086C613.516,217.84,613.008,217.342,612.3,217.335z"
										/>
								</g>
							</g>
							<path style="fill:#808080;" d="M509.979,354.127c-0.652,4.017-4.929,6.877-8.913,6.973c-3.723,0.09-7.539-3.193-7.008-7.048
								c0.569-4.129,4.871-6.992,8.898-6.959C506.381,347.122,510.614,350.218,509.979,354.127z"/>
							<g>
								<g>
									<path style="fill:#FFDF87;" d="M627.806,249.534c-29.976-0.44-59.952-0.852-89.929-1.253
										c-2.732,16.899-5.303,33.823-7.869,50.748c30.832,0.357,61.663,0.718,92.494,1.096
										C624.208,283.255,625.934,266.387,627.806,249.534z"/>
									<path style="fill:#7FB8FA;" d="M530.008,299.028c-0.531,3.512-0.796,5.27-1.328,8.794
										c30.981,0.329,61.963,0.661,92.944,1.009c0.352-3.487,0.527-5.228,0.879-8.707
										C591.672,299.746,560.84,299.386,530.008,299.028z"/>
								</g>
								<g>
									<g>
										<path style="fill:#FFBD81;" d="M561.382,295.821c0.535-1.697,1.121-3.36,1.778-4.942c0.461-1.111,1.001-2.165,1.576-3.165
											c-1.371-0.802-3.425-2.206-5.508-4.352c-0.801,1.401-1.422,2.89-1.954,4.375c-0.323,0.902-0.59,1.836-0.873,2.757
											c-0.217,0.944-0.458,1.883-0.653,2.83c-0.388,1.892-0.654,3.835-0.863,5.784c-0.007,0.069,0.002,0.139,0.002,0.209
											c2.2,0.026,3.299,0.039,5.499,0.064c0.102-0.39,0.152-0.584,0.254-0.974C560.937,297.372,561.085,296.855,561.382,295.821
											z"/>
										<path style="fill:#D8E6EA;" d="M558.922,282.209c0.633-1.016,1.417-2.042,2.32-2.938c0.46-0.456,0.939-0.912,1.53-1.317
											c0.268-0.208,0.607-0.408,0.924-0.605c0.401-0.217,0.598-0.352,1.385-0.627c1.129-0.394,2.848,0.043,3.997,1.047
											c0.7,0.612,1.027,1.493,1.022,2.252s-0.296,1.419-0.619,2.042c-0.73,1.41-1.772,2.559-2.628,3.876
											c-0.3,0.373-0.582,0.775-0.847,1.199c-0.315,0.505-0.623,1.025-0.926,1.552c-1.695-0.991-4.236-2.728-6.81-5.381
											C558.482,282.94,558.7,282.567,558.922,282.209z"/>
									</g>
									<g>
										<path style="fill:#00E3CC;" d="M569.832,276.06c-0.283,0.138-0.544,0.304-0.814,0.46
											c0.383,9.177,0.586,13.778,0.988,23.011c4.474,0.053,6.712,0.079,11.188,0.132c-0.15-9.413-0.225-14.103-0.355-23.462
											C577.167,274.467,572.828,274.597,569.832,276.06z"/>
										<path style="fill:#D0E1E3;" d="M561.806,285.556c-1.527,3.906-0.801,9.502-1.302,13.865
											c3.8,0.044,5.701,0.067,9.502,0.111c-0.402-9.234-0.604-13.834-0.988-23.011
											C565.6,278.502,563.241,281.884,561.806,285.556z"/>
										<path style="fill:#D0E1E3;" d="M581.291,276.402c-0.147-0.077-0.303-0.13-0.452-0.201
											c0.129,9.359,0.205,14.049,0.355,23.462c4.951,0.059,7.427,0.088,12.38,0.147
											C591.741,292.639,589.352,280.618,581.291,276.402z"/>
										<g>
											<path style="fill:#FFBD81;" d="M595.226,298.906c-0.108-0.947-0.26-1.91-0.39-2.867
												c-0.191-0.966-0.365-1.932-0.594-2.903c-0.375-1.591-0.832-3.228-1.458-4.867c-2.051,0.997-4.02,1.335-5.325,1.436
												c0.449,1.171,0.864,2.376,1.203,3.596c0.483,1.74,0.896,3.515,1.26,5.3c0.082,0.452,0.123,0.678,0.206,1.13
												c2.07,0.025,3.106,0.037,5.176,0.062C595.275,299.497,595.26,299.203,595.226,298.906z"/>
											<path style="fill:#D8E6EA;" d="M593.147,287.362c-0.501-1.214-1.135-2.499-1.892-3.73
												c-0.386-0.628-0.785-1.258-1.292-1.897c-0.227-0.311-0.521-0.648-0.794-0.972c-0.348-0.381-0.514-0.591-1.211-1.203
												c-0.997-0.875-2.589-1.264-3.708-0.877c-0.682,0.236-1.045,0.887-1.097,1.579c-0.052,0.692,0.163,1.426,0.41,2.139
												c0.559,1.616,1.42,3.136,2.102,4.725c0.245,0.476,0.472,0.97,0.682,1.477c0.249,0.603,0.492,1.216,0.729,1.834
												c1.613-0.126,4.048-0.543,6.584-1.776C593.494,288.227,593.325,287.792,593.147,287.362z"/>
										</g>
									</g>
									<g>
										<path style="fill:#F78B4F;" d="M571.282,267.782c-0.15,2.178-0.224,3.268-0.372,5.45c1.686,1.186,3.663,1.902,5.526,1.941
											c1.217,0.026,2.367-0.242,3.362-0.74c0.117-1.508,0.176-2.261,0.294-3.768
											C576.567,269.512,574.805,268.935,571.282,267.782z"/>
										<path style="fill:#F79E6C;" d="M570.91,273.231c-0.073,1.081-0.11,1.622-0.182,2.704c-0.118,1.75,1.28,3.585,3.134,4.094
											c0.408,0.112,0.866,0.206,1.381,0.274c4.175,0.555,4.218-1.512,4.218-1.512c0.134-1.744,0.202-2.616,0.337-4.358
											c-0.996,0.497-2.145,0.766-3.362,0.74C574.573,275.134,572.596,274.418,570.91,273.231z"/>
									</g>
									<g>
										<path style="fill:#F79E6C;" d="M582.271,265.984c0.144-0.284,0.236-0.755,0.237-1.266c0-0.34-0.039-0.698-0.132-1.03
											c-0.008-0.029-0.023-0.055-0.032-0.084c-0.069-0.221-0.169-0.422-0.29-0.602c-0.132-0.195-0.286-0.369-0.489-0.482
											c0,0,0,0,0,0c-0.122-0.068-0.235-0.107-0.345-0.134c-0.044-0.011-0.088-0.019-0.13-0.025
											c-0.055-0.007-0.108-0.007-0.16-0.005c-0.207,0.007-0.396,0.082-0.568,0.187c-0.384,0.294-0.442,0.865-0.868,1.209
											c-0.518,0.419-1.175,0.402-1.751-0.276c-0.279-0.329-0.45-0.72-0.604-1.103c-0.855-2.129-1.162-4.218-1.629-6.361
											c-1.294,1.307-3.2,1.96-5.21,2.11c-0.831,0.062-1.684,0.029-2.543-0.047c-0.349,2.385-0.128,4.986,0.37,7.503
											c0.442,2.239,1.344,5.035,3.601,6.458c0.218,0.137,0.45,0.267,0.697,0.387c4.618,2.253,7.869,0.078,8.816-3.75
											c0.006,0.003,0.013,0.002,0.019,0.005c-0.267-0.542-0.537-1.082-0.789-1.628
											C581.259,267.034,581.944,266.627,582.271,265.984z"/>
										<path style="fill:#9B5B30;" d="M584.112,255.987c-0.409-0.562-0.97-1.063-1.579-1.409
											c-0.795-0.453-1.669-0.642-2.384-0.361c-0.522-0.989-1.65-1.586-2.699-1.948c-2.721-0.939-5.521-0.902-8.002-0.28
											c-2.481,0.622-4.676,1.8-6.743,3.107c-0.279,0.176-0.572,0.379-0.631,0.717c-0.072,0.415,0.255,0.902,0.663,1.18
											c0.409,0.278,0.881,0.393,1.336,0.494c1.229,0.273,2.464,0.482,3.682,0.59c0.859,0.076,1.712,0.109,2.543,0.047
											c2.01-0.151,3.916-0.803,5.21-2.11c0.467,2.143,0.774,4.232,1.629,6.361c0.154,0.383,0.324,0.773,0.604,1.103
											c0.575,0.678,1.232,0.695,1.751,0.276c0.422-0.341,0.485-0.903,0.859-1.2c0.029-0.018,0.056-0.041,0.086-0.056
											c0.127-0.077,0.28-0.131,0.49-0.14c0.052-0.001,0.105-0.002,0.16,0.005c0.042,0.005,0.086,0.014,0.13,0.025
											c0.109,0.028,0.223,0.065,0.345,0.133c0,0,0,0,0,0c0,0,0,0,0,0c0.203,0.113,0.357,0.287,0.489,0.482
											c0.122,0.18,0.221,0.381,0.29,0.602c0.009,0.029,0.024,0.054,0.032,0.084c0.093,0.331,0.133,0.69,0.132,1.03
											c-0.001,0.511-0.093,0.982-0.237,1.266c-0.326,0.642-1.012,1.049-1.801,1.068c0.252,0.546,0.522,1.086,0.789,1.628
											c2.638,0.999,4.116-4.283,4.212-5.962C585.597,260.522,585.681,258.147,584.112,255.987z"/>
									</g>
									<path style="fill:#E6F1F2;" d="M570.338,275.832c0,0-0.485,11.728-0.651,16.366c-1.304-2.264-1.956-3.395-3.258-5.657
										c0.847-0.376,1.271-0.563,2.117-0.939c-1.565-2.063-2.348-3.094-3.911-5.155c0,0,1.94-4.744,6.092-4.512"/>
									<path style="fill:#E6F1F2;" d="M580.839,276.202c0,0,0.298,11.89,0.246,16.55c1.396-1.631,2.094-2.446,3.49-4.074
										c-0.821-0.765-1.231-1.147-2.051-1.912c1.647-1.31,2.471-1.964,4.119-3.272
										C586.642,283.494,584.955,277.905,580.839,276.202z"/>
									<path style="fill:#9B5B30;" d="M575.294,268.419c0.034-0.06,0.032-0.157-0.022-0.308c-0.169-0.474-0.623-0.913-1.079-1.147
										c-0.626-0.322-1.381-0.291-1.77,0.134c-0.392-0.553-1.185-0.726-1.713-0.508c-0.23,0.095-0.42,0.248-0.574,0.43
										c-0.107,0.127-0.326,0.434-0.243,0.643c0.111,0.281,0.834,0.309,1.044,0.334c0.471,0.057,0.942,0.115,1.413,0.172
										c0.751,0.091,1.502,0.183,2.253,0.275C574.862,268.475,575.203,268.579,575.294,268.419z"/>
								</g>
							</g>
							<g>
								<g>
									<path style="fill:#F79E6C;" d="M437.931,224.637c0.479-0.751,0.558-1.732,0.61-2.671c0.043-0.788-0.25-1.512-0.559-2.292
										c-0.339-0.856-0.726-1.702-1.156-2.533c-0.143-0.276-0.294-0.554-0.513-0.789c-0.328-0.352-0.777-0.21-0.901,0.155
										c-0.058,0.173-0.03,0.374,0.007,0.569c0.082,0.434,0.197,0.879,0.365,1.307c0.037,0.094,0.327,1.043,0.219,1.024
										c-2.179-0.383-4.268-1.414-6.46-1.609c-0.249-0.022-0.503-0.044-0.735,0.002c-0.725,0.143-1.215,0.677-0.872,1.453
										c0.262,0.592,0.875,1.056,1.432,1.402c1.13,0.701,2.445,1.294,3.678,1.671c0.231,0.071,0.463,0.133,0.695,0.185
										c0.067,0.015,0.136,0.031,0.194,0.073c0.069,0.051,0.106,0.13,0.138,0.205c0.194,0.455,0.341,0.921,0.438,1.388
										C434.512,224.175,437.338,225.565,437.931,224.637z"/>
									<path style="fill:#00C5AB;" d="M458.568,231.935c-0.083-0.051-0.172-0.101-0.267-0.148
										c-0.654-0.327-1.363-0.433-2.046-0.48c-3.361-0.235-6.471,1.107-9.206,2.387c-2.895,1.354-5.579,3.012-8.403,4.471
										c0.011-1.547,0.024-3.092,0.038-4.634c0.012-1.301-0.012-4.127,0.003-5.423c0.009-0.823-0.049-1.643-0.107-2.466
										c-0.038-0.542-0.076-1.085-0.094-1.633c-1.587-0.376-3.175-0.752-4.762-1.128c-0.118,0.579-0.208,1.167-0.294,1.757
										c-0.345,2.359-0.465,4.796-0.505,7.243c-0.046,2.837-0.301,5.98,0.794,8.917c0.445,1.194,1.17,2.435,2.322,3.127
										c1.832,1.1,4.416,0.207,6.032-0.266c2.007-0.588,3.874-1.438,5.715-2.31c0.454-0.215,0.898-0.448,1.341-0.687
										c-1.427,3.808-0.845,9.112-1.382,13.291c3.797,0.054,5.695,0.08,9.491,0.134c-0.225-7.031-0.331-10.527-0.516-17.474
										C458.165,235.734,461.105,233.508,458.568,231.935z"/>
									<g>
										<path style="fill:#FFF7E0;" d="M457.409,231.043c-0.285,0.135-0.549,0.298-0.821,0.451
											c0.221,8.965,0.356,13.486,0.648,22.592c4.468,0.063,6.701,0.094,11.166,0.156c-0.038-9.296-0.045-13.912-0.009-23.074
											C464.76,229.475,460.427,229.611,457.409,231.043z"/>
										<path style="fill:#00C5AB;" d="M468.84,231.364c-0.145-0.075-0.3-0.127-0.448-0.196
											c-0.035,9.162-0.028,13.778,0.009,23.074c4.94,0.068,7.41,0.103,12.348,0.17
											C479.006,247.314,476.809,235.48,468.84,231.364z"/>
									</g>
									<path style="fill:#F78B4F;" d="M459.677,223.964c-0.161,1.779-0.24,2.669-0.397,4.453c1.392,0.968,3.035,1.552,4.592,1.582
										c1.018,0.019,1.983-0.202,2.823-0.611c0.121-1.236,0.182-1.853,0.304-3.086
										C464.069,225.366,462.605,224.898,459.677,223.964z"/>
									<g>
										<path style="fill:#F79E6C;" d="M469.609,221.78c0.365-0.678,0.42-2.545-0.582-3.093c-1.03-0.563-1.599,0.538-2.178,0.986
											c-0.082,0.064-0.174,0.122-0.286,0.134c-0.265,0.03-0.551-0.216-0.659-0.476c-0.109-0.26-0.088-0.529-0.074-0.787
											c0.088-1.545,0.367-3.079-0.441-4.585c-2.371-4.422-8.495-0.882-8.495-0.882c-0.864,2.541-0.747,5.521-0.225,8.382
											c0.364,1.995,1.141,4.491,3.183,5.761c0.197,0.122,0.407,0.238,0.631,0.345c4.19,2.009,7.2,0.054,8.134-3.376
											c0.006,0.002,0.012,0.002,0.017,0.004c-0.235-0.484-0.472-0.967-0.693-1.454
											C468.664,222.721,469.299,222.355,469.609,221.78z"/>
										<path style="fill:#6D5952;" d="M470.115,211.497c-1.388-1.546-3.167-2.296-5.07-2.707
											c-0.316-0.068-3.722,0.014-3.722,0.014s-0.848-1.856-1.75-2.172c-0.727-0.254-1.428,0.144-1.775,0.694
											c-0.297,0.471-0.393,1.153,0.025,1.671c-1.127-0.389-2.238-0.892-3.384-0.863c-0.247,0.006-0.499,0.038-0.679,0.172
											c-0.297,0.22-0.32,0.671-0.161,1.057c0.159,0.386,0.465,0.72,0.771,1.036c0.202,0.208,2.548,2.614,2.526,2.677
											c0,0,6.124-3.54,8.495,0.882c0.808,1.507,0.529,3.04,0.441,4.585c-0.015,0.258-0.035,0.527,0.074,0.787
											c0.108,0.26,0.394,0.506,0.659,0.476c0.112-0.012,0.204-0.071,0.286-0.134c0.579-0.448,1.148-1.549,2.178-0.986
											c1.002,0.548,0.947,2.415,0.582,3.093c-0.31,0.576-0.945,0.941-1.667,0.96c0.221,0.487,0.459,0.97,0.693,1.454
											c2.396,0.887,3.842-3.845,3.962-5.346C472.791,216.409,472.009,213.608,470.115,211.497z"/>
									</g>
									<path style="fill:#00DEC1;" d="M458.548,230.585c0,0-1.308,11.717-1.537,16.278c-1.271-2.228-1.906-3.34-3.173-5.559
										c0.852-0.368,1.278-0.552,2.129-0.92c-1.718-2.009-2.576-3.011-4.29-5.012
										C451.677,235.373,454.406,230.364,458.548,230.585z"/>
									<path style="fill:#00DEC1;" d="M467.015,230.618c0,0,0.973,12.41,1.367,17.266c1.548-2.12,2.322-3.178,3.873-5.292
										c-0.889-0.653-1.333-0.979-2.221-1.631c1.402-1.548,2.103-2.322,3.507-3.868
										C473.54,237.094,471.184,231.734,467.015,230.618z"/>
								</g>
								<path style="fill:#F79E6C;" d="M463.872,229.999c-1.557-0.03-3.2-0.614-4.592-1.582c0.008,0.005-0.01,0.111-0.01,0.12
									c-0.009,0.103-0.018,0.206-0.027,0.309c-0.035,0.395-0.069,0.79-0.104,1.185c-0.037,0.423-0.1,0.842-0.03,1.285
									c0.047,0.3,0.112,0.601,0.192,0.9c0.115,0.43,0.263,0.859,0.449,1.279c0.212,0.479,0.475,0.947,0.802,1.381
									c0.348,0.46,0.769,0.877,1.252,1.204c0,0,3.384-0.425,4.358-2.792c0.148-0.288,0.205-0.61,0.246-0.98
									c0.006-0.053,0.013-0.104,0.018-0.159c0.062-0.643,0.124-1.286,0.187-1.928c0.019-0.201,0.039-0.402,0.059-0.602
									c0.003-0.028-0.004-0.217,0.022-0.23C465.854,229.798,464.89,230.019,463.872,229.999z"/>
							</g>
							<g>
								<g>
									<path style="fill:#FFF7E0;" d="M565.636,226.041c-29.892-0.332-59.784-0.65-89.677-0.976
										c-2.948,16.702-5.637,33.447-8.291,50.197c30.774,0.417,61.548,0.824,92.322,1.238
										C561.761,259.668,563.593,242.841,565.636,226.041z"/>
									<path style="fill:#7FB8FA;" d="M467.668,275.262c-0.549,3.491-0.822,5.241-1.368,8.749
										c30.927,0.404,61.854,0.797,92.78,1.196c0.362-3.488,0.544-5.229,0.909-8.707
										C529.216,276.086,498.442,275.679,467.668,275.262z"/>
								</g>
								<g>
									<g>
										<path style="fill:#FFBD81;" d="M501.98,272.349c0.515-1.602,1.079-3.171,1.71-4.663c0.443-1.048,0.961-2.043,1.511-2.986
											c-1.294-0.758-3.231-2.085-5.19-4.109c-0.768,1.321-1.366,2.724-1.878,4.124c-0.311,0.851-0.569,1.731-0.843,2.6
											c-0.211,0.891-0.445,1.776-0.634,2.669c-0.378,1.785-0.639,3.619-0.846,5.46c-0.007,0.065,0.001,0.131,0.001,0.197
											c2.084,0.028,3.126,0.042,5.209,0.07c0.098-0.368,0.147-0.552,0.245-0.919C501.55,273.814,501.694,273.326,501.98,272.349
											z"/>
										<path style="fill:#0090C9;" d="M499.729,259.505c0.606-0.957,1.355-1.924,2.217-2.768c0.439-0.43,0.895-0.859,1.458-1.241
											c0.255-0.196,0.577-0.385,0.879-0.57c0.381-0.204,0.569-0.332,1.316-0.59c1.072-0.371,2.696,0.04,3.777,0.987
											c0.659,0.577,0.963,1.408,0.953,2.123c-0.01,0.715-0.29,1.338-0.599,1.926c-0.701,1.33-1.694,2.413-2.513,3.655
											c-0.286,0.352-0.556,0.731-0.809,1.131c-0.301,0.476-0.596,0.966-0.886,1.464c-1.6-0.937-3.996-2.578-6.418-5.081
											C499.306,260.193,499.515,259.842,499.729,259.505z"/>
									</g>
									<g>
										<path style="fill:#FFDF87;" d="M526.472,240.072c0.756,4.145,0.634,8.451-0.304,12.22
											c-0.025,0.099-0.052,0.202-0.13,0.262c-0.052,0.04-0.121,0.057-0.189,0.072c-2.946,0.681-5.778,1.108-8.997,0.775
											c-1.062-0.11-2.128-0.234-3.197-0.455c-1.012-0.208-2.002-0.656-2.999-0.87c-0.934-0.201-1.817-0.399-2.753-0.754
											c-0.263-0.1-2.754-1.076-2.74-1.279c0.277-3.879,0.776-7.693,0.945-11.583c0.097-2.241,0.303-4.261,1.571-5.996
											c0.638-0.873,1.47-1.609,2.494-2.055c1.393-0.606,3.753-0.902,5.152,0.579c-0.103-0.109,2.426-0.372,2.608-0.359
											c1.152,0.079,2.338,0.261,3.459,0.818c3.228,1.605,4.324,5.017,4.959,8.002
											C526.393,239.657,526.434,239.864,526.472,240.072z"/>
										<path style="fill:#0079A9;" d="M520.447,254.219c-0.137-0.072-0.282-0.122-0.422-0.188
											c-3.421-1.619-7.48-1.495-10.293-0.131c-0.265,0.129-0.511,0.284-0.764,0.429c-3.21,1.847-5.439,5.002-6.802,8.428
											c-1.451,3.645-0.8,8.874-1.288,12.952c3.556,0.048,5.334,0.071,8.89,0.119c4.185,0.056,6.278,0.084,10.463,0.139
											c4.63,0.062,6.945,0.092,11.575,0.154C530.123,269.4,527.957,258.154,520.447,254.219z"/>
										<g>
											<path style="fill:#FFAB5E;" d="M511.191,246.184c-0.098,2.03-0.146,3.046-0.241,5.081
												c1.427,1.104,3.093,1.769,4.653,1.803c1.02,0.022,1.978-0.23,2.805-0.696c0.078-1.408,0.117-2.111,0.196-3.516
												C515.639,247.786,514.156,247.252,511.191,246.184z"/>
											<path style="fill:#FFBD81;" d="M510.951,251.265c-0.051,1.101-0.319,2.23,0.038,3.363
												c0.562,1.779,1.381,3.534,2.425,5.189c0.044,0.07,2.551-1.258,2.769-1.394c0.71-0.441,1.246-1.07,1.599-1.828
												c0.365-0.784,0.474-1.437,0.523-2.341c0.033-0.607,0.067-1.215,0.1-1.822c0.001-0.02,0.002-0.041,0.003-0.061
												c-0.827,0.466-1.786,0.718-2.805,0.696C514.044,253.034,512.378,252.369,510.951,251.265z"/>
										</g>
										<path style="fill:#FFBD81;" d="M509.036,242.171c0.091,2.215,0.641,4.514,1.791,6.528c1.297,2.27,4.94,3.202,6.888,2.352
											c0.962-0.42,1.683-1.263,2.203-2.129c0.279-0.463,0.51-0.965,0.65-1.505c0.109-0.421,0.387-0.907,0.22-1.389
											c0.6,0.701,1.293,0.507,1.739,0.034c0.422-0.449,0.492-1.274,0.499-1.925c0.003-0.249-0.016-0.506-0.099-0.76
											c-0.271-0.823-0.896-1.387-1.694-1.083c-1.142,0.435-0.776,1.487-1.296,2.396c-0.106,0.185-0.31,0.357-0.544,0.258
											c-0.236-0.101-0.315-0.393-0.352-0.628c-0.049-0.319-0.098-0.638-0.147-0.957c-0.027-0.174-0.054-0.351-0.124-0.522
											c-0.244-0.597-0.83-1.072-1.226-1.587c-0.482-0.626-0.904-1.306-1.302-1.974c-0.244-0.409-2.242-3.819-1.935-4.047
											c-1.073,0.797-2.2,1.627-3.612,1.886c-0.176,0.032-1.077,0.09-1.127,0.269
											C509.166,238.822,508.966,240.472,509.036,242.171z"/>
									</g>
								</g>
							</g>
							<g>
								<path style="fill:#FFBD81;" d="M532.765,275.23c-0.105-0.966-0.255-1.948-0.382-2.923c-0.19-0.985-0.362-1.969-0.59-2.958
									c-0.374-1.621-0.83-3.289-1.457-4.958c-2.103,1.014-4.118,1.355-5.452,1.458c0.451,1.193,0.867,2.42,1.206,3.663
									c0.483,1.772,0.894,3.582,1.256,5.402c0.082,0.461,0.122,0.691,0.204,1.152c2.116,0.028,3.174,0.042,5.29,0.071
									C532.812,275.833,532.798,275.533,532.765,275.23z"/>
								<path style="fill:#0090C9;" d="M530.713,263.467c-0.503-1.236-1.142-2.544-1.906-3.797c-0.39-0.639-0.793-1.28-1.306-1.929
									c-0.23-0.317-0.527-0.659-0.803-0.988c-0.352-0.387-0.52-0.601-1.228-1.223c-1.012-0.89-2.636-1.284-3.783-0.891
									c-0.699,0.239-1.075,0.901-1.134,1.604c-0.059,0.703,0.155,1.449,0.402,2.174c0.558,1.643,1.428,3.189,2.113,4.805
									c0.247,0.485,0.475,0.987,0.687,1.503c0.25,0.613,0.494,1.238,0.732,1.867c1.65-0.127,4.141-0.549,6.741-1.803
									C531.062,264.348,530.892,263.905,530.713,263.467z"/>
							</g>
							<g>
								<path style="fill:#89C33F;" d="M425.057,310.648c2.721,3.609,1.786,8.608-2.093,11.169c-3.879,2.561-9.229,1.7-11.948-1.928
									c-2.719-3.628-1.779-8.634,2.098-11.176C416.99,306.171,422.336,307.039,425.057,310.648z"/>
								<g>
									<path style="fill:#FFFFFF;" d="M420.783,314.193c0.077-0.626,0.115-0.939,0.192-1.564c-1.784-0.019-5.19-0.056-6.975-0.076
										c-0.33,2.126-0.496,3.19-0.828,5.322c1.854,0.019,5.296,0.054,7.15,0.073c0.077-0.627,0.116-0.94,0.193-1.567
										c0.716,0.635,1.078,0.952,1.811,1.587c0.232-2.13,0.347-3.194,0.578-5.318
										C422.065,313.267,421.641,313.576,420.783,314.193z"/>
								</g>
							</g>
							<g>
								<path style="fill:#7FB8FA;" d="M481.374,311.246c2.726,3.583,1.807,8.547-2.058,11.091
									c-3.864,2.544-9.206,1.694-11.928-1.906c-2.722-3.6-1.797-8.571,2.063-11.099
									C473.312,306.804,478.648,307.663,481.374,311.246z"/>
								<g>
									<g>
										<path style="fill:#FFFFFF;" d="M474.317,317.161c1.095,0.011,1.985-0.695,1.979-1.567
											c-0.008-1.076-0.012-1.614-0.02-2.689c-0.006-0.871-0.877-1.592-1.935-1.603c-1.058-0.011-1.934,0.692-1.948,1.563
											c-0.017,1.075-0.025,1.613-0.042,2.69C472.338,316.428,473.222,317.151,474.317,317.161z"/>
										<path style="fill:#FFFFFF;" d="M474.607,318.326c1.635-0.105,2.906-1.172,2.887-2.496
											c-0.006-0.412-0.009-0.617-0.015-1.029c-0.002-0.129-0.133-0.235-0.292-0.236c-0.159-0.002-0.288,0.102-0.286,0.231
											c0.004,0.411,0.007,0.617,0.011,1.029c0.012,1.146-1.153,2.068-2.599,2.055c-1.445-0.014-2.602-0.959-2.58-2.105
											c0.008-0.412,0.012-0.618,0.02-1.029c0.003-0.129-0.125-0.235-0.284-0.237c-0.159-0.001-0.291,0.102-0.294,0.231
											c-0.009,0.412-0.014,0.617-0.023,1.029c-0.03,1.324,1.232,2.417,2.865,2.552c-0.003,0.539-0.005,0.809-0.008,1.349
											c0.001,0.001,0.001,0.002,0.002,0.004c-0.689-0.006-1.034-0.01-1.723-0.016c-0.164-0.001-0.299,0.102-0.302,0.231
											c-0.002,0.129,0.13,0.235,0.294,0.237c1.62,0.015,2.43,0.022,4.049,0.037c0.164,0.001,0.297-0.102,0.296-0.231
											c-0.001-0.129-0.136-0.235-0.299-0.237c-0.69-0.007-1.035-0.01-1.724-0.016c0.001-0.002,0.001-0.002,0.002-0.004
											C474.605,319.134,474.605,318.865,474.607,318.326z"/>
									</g>
								</g>
							</g>
							<g>
								<path style="fill:#F45B5B;" d="M453.23,310.951c2.723,3.596,1.795,8.577-2.076,11.13c-3.871,2.553-9.216,1.697-11.936-1.916
									c-2.72-3.613-1.787-8.602,2.082-11.137C445.167,306.493,450.507,307.356,453.23,310.951z"/>
								<path style="fill:#FFFFFF;" d="M449.527,316.348c-0.471-0.23-0.707-0.345-1.178-0.574c-0.386-0.188-0.785-0.036-0.87,0.331
									c-0.082,0.352-0.123,0.528-0.204,0.879c-0.639-0.198-1.437-0.582-2.335-1.357c-0.749-0.646-1.182-1.274-1.439-1.807
									c0.341-0.164,0.511-0.245,0.852-0.409c0.329-0.158,0.395-0.596,0.145-0.956c-0.306-0.439-0.458-0.659-0.764-1.098
									c-0.24-0.345-0.679-0.484-0.979-0.31c-0.187,0.109-0.374,0.217-0.561,0.326c-0.299,0.174-0.537,0.355-0.665,0.695
									c-0.09,0.237-0.062,0.479-0.004,0.757c0.314,1.509,1.18,2.966,2.434,4.047c1.918,1.654,3.598,2.031,4.593,2.079
									c0.563,0.027,1.019-0.273,1.177-0.779c0.11-0.352,0.165-0.528,0.275-0.88C450.11,316.952,449.897,316.528,449.527,316.348z"
									/>
							</g>
						</g>
					</g>
				</g>
				<g>
					<g>
						<g>
							<rect x="404.308" y="411.7" style="fill:#E3E3E3;" width="164.606" height="4.945"/>
							<g>
								<rect x="408.277" y="408.799" style="fill:#292B33;" width="12.887" height="2.901"/>
								<rect x="424.263" y="408.799" style="fill:#292B33;" width="12.887" height="2.901"/>
								<rect x="440.249" y="408.799" style="fill:#292B33;" width="61.601" height="2.901"/>
								<rect x="504.192" y="408.799" style="fill:#292B33;" width="12.887" height="2.901"/>
								<rect x="520.178" y="408.799" style="fill:#292B33;" width="12.887" height="2.901"/>
								<rect x="536.164" y="408.799" style="fill:#292B33;" width="12.887" height="2.901"/>
								<rect x="552.149" y="408.799" style="fill:#292B33;" width="12.887" height="2.901"/>
								<rect x="568.135" y="408.799" style="fill:#292B33;" width="11.07" height="2.901"/>
								<rect x="581.868" y="408.799" style="fill:#292B33;" width="11.07" height="2.901"/>
							</g>
						</g>
						<rect x="568.914" y="411.7" style="fill:#B0B0B0;" width="26.122" height="4.945"/>
					</g>
					<path style="fill:#808080;" d="M638.167,405.183h-10.478c-6.077,0-11.004,4.927-11.004,11.004v0.459h32.486v-0.459
						C649.171,410.11,644.244,405.183,638.167,405.183z"/>
				</g>
			</g>
			<g>
				<path style="fill:#7FB8FA;" d="M725.451,416.721h-55.045h-386.69c-4.255,0-7.705,3.403-7.705,7.6h394.395h62.75
					C733.156,420.124,729.706,416.721,725.451,416.721z"/>
				<path style="fill:#618DBF;" d="M670.406,424.321H276.011c0,4.198,3.45,7.601,7.705,7.601h386.69h55.045
					c4.255,0,7.705-3.403,7.705-7.601H670.406z"/>
			</g>
		</g>
		<g>
			<g>
				<g style="opacity:0.25;">
					<path style="fill:#2490BF;" d="M318.029,152.347c-25.882,4.176-44.214,26.732-43.837,52.191l-20.033,13.268l24.199,6.466
						c9.166,21.558,32.12,34.94,56.285,31.041c28.433-4.588,47.764-31.357,43.176-59.79
						C373.231,167.09,346.462,147.76,318.029,152.347z"/>
				</g>
				<g>
					<path style="fill:#FFFFFF;" d="M318.029,147c-25.882,4.176-44.214,26.732-43.837,52.191l-20.033,13.269l24.199,6.466
						c9.166,21.558,32.12,34.94,56.285,31.041c28.433-4.588,47.764-31.357,43.176-59.79
						C373.231,161.743,346.462,142.412,318.029,147z"/>
				</g>
			</g>
			<g>
				<path style="fill:#F45B5B;" d="M353.184,190.705c0-8.424-6.829-15.254-15.254-15.254c-4.896,0-9.242,2.316-12.033,5.902
					c-2.791-3.586-7.137-5.902-12.033-5.902c-8.424,0-15.254,6.829-15.254,15.254c0,0-2.382,13.591,20.937,34.516
					c3.661,3.286,9.189,3.359,12.907,0.138C340.792,218.136,354.023,204.421,353.184,190.705z"/>
				
					<polyline style="fill:none;stroke:#FFFFFF;stroke-width:0.9454;stroke-linecap:round;stroke-linejoin:round;stroke-miterlimit:10;" points="
					307.142,202.537 317.607,202.537 319.427,194.546 322.612,208.023 325.882,189.717 329.21,208.023 332.167,194.419 
					334.215,202.537 343.997,202.537 				"/>
			</g>
		</g>
		<g>
			<g>
				<path style="fill:none;" d="M122.228,415.403c-0.106-0.589-0.221-1.176-0.329-1.765
					C122.007,414.227,122.122,414.814,122.228,415.403z"/>
				<path style="fill:none;" d="M121.009,408.864c-0.131-0.676-0.272-1.349-0.405-2.024
					C120.737,407.515,120.878,408.189,121.009,408.864z"/>
				<path style="fill:none;" d="M125.368,435.121c-0.073-0.523-0.154-1.045-0.228-1.568
					C125.214,434.076,125.295,434.598,125.368,435.121z"/>
				<path style="fill:none;" d="M124.409,428.535c-0.083-0.545-0.175-1.089-0.26-1.634
					C124.234,427.447,124.326,427.99,124.409,428.535z"/>
				<path style="fill:none;" d="M123.361,421.959c-0.082-0.494-0.172-0.987-0.256-1.48
					C123.189,420.972,123.279,421.465,123.361,421.959z"/>
				<path style="fill:none;" d="M119.702,402.34c-0.142-0.683-0.294-1.364-0.438-2.047
					C119.408,400.975,119.56,401.656,119.702,402.34z"/>
				<path style="fill:none;" d="M118.309,395.835c-0.148-0.668-0.306-1.333-0.456-2
					C118.003,394.501,118.161,395.167,118.309,395.835z"/>
				<path style="fill:none;" d="M111.879,370.025c-0.21-0.756-0.431-1.509-0.645-2.264
					C111.448,368.516,111.669,369.268,111.879,370.025z"/>
				<path style="fill:none;" d="M113.615,376.443c-0.191-0.727-0.394-1.451-0.589-2.178
					C113.221,374.991,113.424,375.716,113.615,376.443z"/>
				<path style="fill:none;" d="M115.265,382.885c-0.185-0.742-0.381-1.48-0.569-2.221
					C114.885,381.405,115.081,382.144,115.265,382.885z"/>
				<path style="fill:none;" d="M128.331,461.586c-0.042-0.493-0.092-0.985-0.135-1.478
					C128.239,460.6,128.289,461.093,128.331,461.586z"/>
				<path style="fill:none;" d="M130.05,494.84c-0.01-0.557-0.029-1.114-0.041-1.671C130.02,493.725,130.04,494.282,130.05,494.84z"
					/>
				<path style="fill:none;" d="M129.884,488.181c-0.018-0.559-0.044-1.118-0.064-1.677
					C129.839,487.063,129.866,487.622,129.884,488.181z"/>
				<path style="fill:none;" d="M129.629,481.526c-0.026-0.574-0.061-1.148-0.089-1.722
					C129.568,480.378,129.603,480.952,129.629,481.526z"/>
				<path style="fill:none;" d="M130.126,501.5c-0.002-0.411-0.011-0.822-0.014-1.232h0
					C130.115,500.678,130.124,501.089,130.126,501.5z"/>
				<path style="fill:none;" d="M130.112,500.268L130.112,500.268c-0.001-0.15-0.004-0.3-0.005-0.45
					C130.108,499.968,130.111,500.118,130.112,500.268z"/>
				<path style="fill:none;" d="M127.025,448.334c-0.058-0.52-0.125-1.039-0.185-1.559
					C126.9,447.294,126.967,447.814,127.025,448.334z"/>
				<path style="fill:none;" d="M126.24,441.722c-0.065-0.515-0.138-1.03-0.204-1.545
					C126.103,440.692,126.176,441.207,126.24,441.722z"/>
				<path style="fill:none;" d="M129.285,474.876c-0.034-0.578-0.077-1.156-0.113-1.734
					C129.208,473.72,129.251,474.298,129.285,474.876z"/>
				<path style="fill:none;" d="M127.723,454.957c-0.053-0.538-0.115-1.075-0.169-1.613
					C127.608,453.882,127.67,454.419,127.723,454.957z"/>
				<path style="fill:none;" d="M110.059,363.633c-0.228-0.781-0.468-1.559-0.7-2.339
					C109.591,362.074,109.831,362.852,110.059,363.633z"/>
				<path style="fill:none;" d="M128.852,468.227c-0.037-0.521-0.083-1.04-0.122-1.561
					C128.769,467.187,128.815,467.707,128.852,468.227z"/>
				<path style="fill:none;" d="M116.829,389.346c-0.148-0.63-0.306-1.259-0.457-1.889
					C116.523,388.087,116.681,388.715,116.829,389.346z"/>
				<path style="fill:none;" d="M92.454,313.532c-1.69-4.088-3.436-8.151-5.237-12.189C89.018,305.38,90.764,309.444,92.454,313.532
					z"/>
				<path style="fill:none;" d="M99.687,332.086c-0.386-1.052-0.785-2.099-1.178-3.148
					C98.901,329.987,99.301,331.034,99.687,332.086z"/>
				<path style="fill:none;" d="M106.162,350.924c-0.258-0.802-0.527-1.6-0.789-2.4
					C105.635,349.324,105.905,350.122,106.162,350.924z"/>
				<path style="fill:none;" d="M101.93,338.338c-0.41-1.166-0.834-2.327-1.252-3.49
					C101.096,336.011,101.521,337.172,101.93,338.338z"/>
				<path style="fill:none;" d="M104.089,344.617c-0.375-1.115-0.764-2.225-1.147-3.337
					C103.325,342.392,103.714,343.502,104.089,344.617z"/>
				<path style="fill:none;" d="M94.949,319.684c-0.456-1.146-0.926-2.286-1.39-3.428C94.023,317.398,94.493,318.538,94.949,319.684
					z"/>
				<path style="fill:none;" d="M97.359,325.866c-0.433-1.133-0.88-2.26-1.321-3.39C96.479,323.606,96.926,324.733,97.359,325.866z"
					/>
				<path style="fill:none;" d="M108.153,357.264c-0.214-0.698-0.439-1.393-0.656-2.091
					C107.714,355.871,107.939,356.565,108.153,357.264z"/>
				<path style="fill:#292B33;" d="M130.107,499.818c-0.014-1.659-0.027-3.319-0.057-4.978c-0.01-0.557-0.029-1.114-0.041-1.671
					c-0.036-1.663-0.072-3.325-0.124-4.987c-0.018-0.559-0.044-1.118-0.064-1.677c-0.058-1.66-0.116-3.319-0.191-4.978
					c-0.026-0.574-0.061-1.148-0.089-1.722c-0.08-1.643-0.159-3.286-0.255-4.928c-0.034-0.578-0.077-1.156-0.113-1.734
					c-0.101-1.639-0.202-3.278-0.32-4.915c-0.037-0.521-0.083-1.04-0.122-1.561c-0.127-1.694-0.255-3.388-0.399-5.081
					c-0.042-0.493-0.092-0.985-0.135-1.478c-0.151-1.717-0.304-3.435-0.473-5.15c-0.053-0.538-0.115-1.075-0.169-1.613
					c-0.17-1.671-0.341-3.341-0.528-5.01c-0.058-0.52-0.125-1.039-0.185-1.559c-0.194-1.685-0.389-3.37-0.6-5.053
					c-0.065-0.515-0.138-1.03-0.204-1.545c-0.217-1.686-0.435-3.372-0.669-5.056c-0.073-0.523-0.154-1.045-0.228-1.568
					c-0.238-1.673-0.476-3.347-0.731-5.018c-0.083-0.545-0.175-1.089-0.26-1.634c-0.257-1.649-0.514-3.297-0.787-4.943
					c-0.082-0.494-0.172-0.987-0.256-1.48c-0.286-1.693-0.574-3.386-0.878-5.076c-0.106-0.589-0.221-1.176-0.329-1.765
					c-0.292-1.592-0.583-3.185-0.891-4.774c-0.131-0.676-0.272-1.349-0.405-2.024c-0.297-1.501-0.591-3.002-0.902-4.501
					c-0.142-0.683-0.294-1.364-0.438-2.047c-0.315-1.487-0.627-2.975-0.955-4.458c-0.148-0.668-0.306-1.333-0.456-2
					c-0.337-1.497-0.673-2.995-1.024-4.488c-0.148-0.63-0.306-1.259-0.457-1.889c-0.365-1.525-0.728-3.051-1.107-4.572
					c-0.185-0.742-0.381-1.48-0.569-2.221c-0.357-1.408-0.712-2.817-1.081-4.221c-0.191-0.727-0.394-1.451-0.589-2.178
					c-0.379-1.414-0.755-2.83-1.147-4.241c-0.21-0.756-0.431-1.509-0.645-2.264c-0.389-1.377-0.775-2.755-1.176-4.128
					c-0.228-0.781-0.468-1.559-0.7-2.339c-0.4-1.344-0.795-2.69-1.207-4.03c-0.214-0.698-0.439-1.393-0.656-2.091
					c-0.441-1.417-0.88-2.836-1.334-4.249c-0.258-0.802-0.527-1.6-0.789-2.4c-0.426-1.303-0.848-2.607-1.285-3.907
					c-0.375-1.115-0.764-2.225-1.147-3.337c-0.338-0.98-0.668-1.964-1.011-2.942c-0.41-1.166-0.834-2.327-1.252-3.49
					c-0.331-0.92-0.655-1.844-0.991-2.762c-0.386-1.052-0.785-2.099-1.178-3.148c-0.383-1.024-0.759-2.05-1.149-3.071
					c-0.433-1.133-0.88-2.26-1.321-3.39c-0.364-0.931-0.72-1.865-1.089-2.793c-0.456-1.146-0.926-2.286-1.39-3.428
					c-0.369-0.908-0.73-1.818-1.104-2.723c-1.69-4.088-3.436-8.151-5.237-12.189c-11.027-24.725-24.307-49.314-26.506-76.414
					c-0.335-4.122-0.404-8.297,0.299-12.369c0.227-1.312,0.556-2.6,0.948-3.866c-4.621,2.05-8.944,4.753-11.945,8.622
					c-9.497,12.242-11.16,25.772-8.33,40.527c4.699,24.494,17.195,46.924,27.301,69.927c16.908,38.487,27.291,79.288,33.049,120.515
					c1.443,10.334,2.595,20.704,3.492,31.093c0.501,5.802-0.834,15.237,2.135,20.89h22.451
					C130.111,500.118,130.108,499.968,130.107,499.818z"/>
				<path style="fill:#373B4A;" d="M60.711,224.929c2.199,27.1,15.48,51.688,26.506,76.414c1.801,4.038,3.547,8.102,5.237,12.189
					c0.374,0.905,0.736,1.816,1.104,2.723c0.464,1.142,0.935,2.282,1.39,3.428c0.369,0.928,0.725,1.862,1.089,2.793
					c0.441,1.13,0.888,2.257,1.321,3.39c0.39,1.021,0.766,2.048,1.149,3.071c0.393,1.049,0.793,2.096,1.178,3.148
					c0.337,0.918,0.66,1.841,0.991,2.762c0.418,1.163,0.843,2.324,1.252,3.49c0.344,0.978,0.674,1.961,1.011,2.942
					c0.383,1.112,0.772,2.222,1.147,3.337c0.437,1.299,0.858,2.604,1.285,3.907c0.262,0.801,0.531,1.598,0.789,2.4
					c0.454,1.413,0.893,2.832,1.334,4.249c0.217,0.697,0.442,1.392,0.656,2.091c0.411,1.341,0.807,2.686,1.207,4.03
					c0.232,0.78,0.472,1.558,0.7,2.339c0.401,1.373,0.786,2.751,1.176,4.128c0.213,0.755,0.435,1.508,0.645,2.264
					c0.392,1.411,0.768,2.826,1.147,4.241c0.195,0.726,0.397,1.45,0.589,2.178c0.37,1.405,0.724,2.813,1.081,4.221
					c0.188,0.741,0.384,1.479,0.569,2.221c0.379,1.521,0.742,3.047,1.107,4.572c0.151,0.63,0.309,1.258,0.457,1.889
					c0.351,1.494,0.686,2.991,1.024,4.488c0.15,0.667,0.308,1.332,0.456,2c0.328,1.484,0.64,2.971,0.955,4.458
					c0.144,0.683,0.297,1.363,0.438,2.047c0.311,1.498,0.605,3,0.902,4.501c0.133,0.675,0.275,1.349,0.405,2.024
					c0.307,1.589,0.599,3.182,0.891,4.774c0.108,0.589,0.223,1.176,0.329,1.765c0.304,1.69,0.591,3.383,0.878,5.076
					c0.083,0.494,0.174,0.986,0.256,1.48c0.273,1.646,0.53,3.294,0.787,4.943c0.085,0.545,0.177,1.089,0.26,1.634
					c0.255,1.671,0.493,3.344,0.731,5.018c0.074,0.523,0.155,1.045,0.228,1.568c0.234,1.684,0.452,3.37,0.669,5.056
					c0.066,0.515,0.139,1.029,0.204,1.545c0.211,1.683,0.406,3.368,0.6,5.053c0.06,0.52,0.127,1.039,0.185,1.559
					c0.187,1.669,0.358,3.34,0.528,5.01c0.055,0.538,0.116,1.075,0.169,1.613c0.169,1.716,0.322,3.433,0.473,5.15
					c0.043,0.493,0.094,0.985,0.135,1.478c0.144,1.693,0.272,3.387,0.399,5.081c0.039,0.52,0.085,1.04,0.122,1.561
					c0.118,1.638,0.219,3.277,0.32,4.915c0.036,0.578,0.079,1.155,0.113,1.734c0.096,1.642,0.175,3.285,0.255,4.928
					c0.028,0.574,0.063,1.148,0.089,1.722c0.075,1.659,0.133,3.318,0.191,4.978c0.02,0.559,0.046,1.118,0.064,1.677
					c0.052,1.662,0.089,3.325,0.124,4.987c0.012,0.557,0.031,1.114,0.041,1.671c0.03,1.659,0.044,3.319,0.057,4.978
					c0.001,0.15,0.004,0.3,0.005,0.45h74.053c9.82-2.948,19.527-6.302,29.194-9.652c4.917-1.704,9.968-3.483,13.843-6.802
					c7.665-6.565,8.888-17.344,9.141-27.092c0.823-31.742-3.297-63.393-7.409-94.909c-2.665-20.423-5.33-40.846-7.995-61.27
					c-3.182-24.381-6.402-48.935-14.405-72.317c-5.343-15.614-19.493-25.447-35.965-30.062c-14.445-4.047-29.769-4.155-44.84-3.94
					c-18.012,0.256-36.284,0.954-53.759,5.43c-7.733,1.981-15.753,4.017-23.266,6.485c-2.243,0.737-4.528,1.572-6.745,2.555
					c-0.393,1.266-0.722,2.553-0.948,3.866C60.307,216.632,60.377,220.807,60.711,224.929z"/>
				<path style="fill:#474A59;" d="M130.126,501.5c0.008,1.645-0.001,3.29-0.009,4.936
					C130.125,504.791,130.134,503.145,130.126,501.5z"/>
				<path style="fill:#474A59;" d="M111.235,367.761c-0.389-1.377-0.775-2.755-1.176-4.128
					C110.46,365.006,110.846,366.384,111.235,367.761z"/>
				<path style="fill:#474A59;" d="M130.107,499.818c-0.014-1.659-0.027-3.319-0.057-4.978
					C130.08,496.499,130.094,498.158,130.107,499.818z"/>
				<path style="fill:#474A59;" d="M93.559,316.255c-0.369-0.908-0.73-1.818-1.104-2.723
					C92.829,314.437,93.19,315.348,93.559,316.255z"/>
				<path style="fill:#474A59;" d="M127.553,453.344c-0.17-1.671-0.341-3.341-0.528-5.01
					C127.212,450.003,127.383,451.673,127.553,453.344z"/>
				<path style="fill:#474A59;" d="M129.54,479.804c-0.08-1.643-0.159-3.286-0.255-4.928
					C129.381,476.518,129.46,478.161,129.54,479.804z"/>
				<path style="fill:#474A59;" d="M129.173,473.142c-0.101-1.639-0.203-3.278-0.32-4.915
					C128.97,469.865,129.071,471.504,129.173,473.142z"/>
				<path style="fill:#474A59;" d="M96.038,322.477c-0.364-0.931-0.72-1.865-1.089-2.793
					C95.318,320.612,95.674,321.546,96.038,322.477z"/>
				<path style="fill:#474A59;" d="M129.82,486.504c-0.058-1.66-0.116-3.319-0.191-4.978
					C129.703,483.185,129.762,484.844,129.82,486.504z"/>
				<path style="fill:#474A59;" d="M130.008,493.168c-0.036-1.663-0.072-3.325-0.124-4.987
					C129.936,489.843,129.972,491.506,130.008,493.168z"/>
				<path style="fill:#474A59;" d="M128.73,466.667c-0.127-1.694-0.255-3.388-0.399-5.081
					C128.476,463.278,128.603,464.972,128.73,466.667z"/>
				<path style="fill:#474A59;" d="M128.196,460.108c-0.151-1.717-0.304-3.435-0.473-5.15
					C127.892,456.673,128.044,458.39,128.196,460.108z"/>
				<path style="fill:#474A59;" d="M105.373,348.524c-0.426-1.303-0.848-2.608-1.285-3.907
					C104.526,345.916,104.947,347.221,105.373,348.524z"/>
				<path style="fill:#474A59;" d="M117.853,393.834c-0.337-1.497-0.673-2.995-1.024-4.488
					C117.18,390.84,117.516,392.337,117.853,393.834z"/>
				<path style="fill:#474A59;" d="M126.84,446.775c-0.194-1.685-0.389-3.37-0.6-5.053
					C126.452,443.405,126.646,445.09,126.84,446.775z"/>
				<path style="fill:#474A59;" d="M116.372,387.457c-0.365-1.525-0.728-3.051-1.107-4.572
					C115.645,384.407,116.008,385.932,116.372,387.457z"/>
				<path style="fill:#474A59;" d="M120.603,406.84c-0.297-1.501-0.591-3.002-0.902-4.501
					C120.012,403.838,120.307,405.339,120.603,406.84z"/>
				<path style="fill:#474A59;" d="M113.026,374.265c-0.379-1.414-0.755-2.83-1.147-4.241
					C112.271,371.435,112.647,372.851,113.026,374.265z"/>
				<path style="fill:#474A59;" d="M109.359,361.294c-0.4-1.344-0.795-2.69-1.207-4.03
					C108.564,358.604,108.959,359.95,109.359,361.294z"/>
				<path style="fill:#474A59;" d="M107.496,355.173c-0.441-1.417-0.88-2.836-1.334-4.249
					C106.616,352.337,107.055,353.756,107.496,355.173z"/>
				<path style="fill:#474A59;" d="M114.697,380.664c-0.357-1.408-0.712-2.817-1.081-4.221
					C113.985,377.847,114.339,379.256,114.697,380.664z"/>
				<path style="fill:#474A59;" d="M119.264,400.293c-0.315-1.487-0.627-2.975-0.955-4.458
					C118.637,397.318,118.949,398.806,119.264,400.293z"/>
				<path style="fill:#474A59;" d="M125.14,433.553c-0.238-1.673-0.476-3.347-0.731-5.018
					C124.663,430.206,124.902,431.88,125.14,433.553z"/>
				<path style="fill:#474A59;" d="M124.149,426.902c-0.257-1.649-0.514-3.297-0.787-4.943
					C123.635,423.605,123.892,425.253,124.149,426.902z"/>
				<path style="fill:#474A59;" d="M98.509,328.938c-0.383-1.024-0.759-2.05-1.149-3.071
					C97.749,326.888,98.125,327.914,98.509,328.938z"/>
				<path style="fill:#474A59;" d="M126.037,440.177c-0.217-1.686-0.435-3.372-0.669-5.056
					C125.602,436.805,125.82,438.491,126.037,440.177z"/>
				<path style="fill:#474A59;" d="M123.106,420.479c-0.286-1.693-0.574-3.386-0.878-5.076
					C122.532,417.093,122.819,418.786,123.106,420.479z"/>
				<path style="fill:#474A59;" d="M121.899,413.638c-0.292-1.592-0.583-3.185-0.891-4.774
					C121.316,410.454,121.607,412.046,121.899,413.638z"/>
				<path style="fill:#474A59;" d="M100.678,334.848c-0.331-0.921-0.655-1.844-0.991-2.762
					C100.023,333.004,100.347,333.927,100.678,334.848z"/>
				<path style="fill:#474A59;" d="M102.942,341.28c-0.338-0.98-0.668-1.964-1.011-2.942
					C102.274,339.316,102.604,340.299,102.942,341.28z"/>
			</g>
			<path style="fill:#FFBD82;" d="M383.479,390.049c12.091-1.944,25.414-0.099,37.438,1.93c3.028,0.511,6.111,1.039,8.832,2.374
				c2.077,1.018,3.865,2.47,5.581,3.957c2.579,2.234,19.63,16.403,12.45,18.792c-2.704,0.9-4.982-1.997-7.063-3.194
				c-6.043-3.476-13.315-8.652-20.41-9.853c-5.514-0.933-12.064-0.555-17.449,0.682c-1.082,0.249-2.358,0.733-2.491,1.757
				c-0.058,0.45,0.136,0.896,0.361,1.3c2.621,4.7,7.717,3.377,12.528,4.487c0.559,0.129,1.136,0.279,1.573,0.626
				c1.211,0.963,0.667,2.886-0.509,3.877c-2.558,2.156-7.182,2.606-10.525,2.373c-6.795-0.473-13.218-3.273-19.271-5.981"/>
			<path style="fill:#00E3CC;" d="M379.044,384.699c0,0,2.175-0.322,9.709,0.906c0,0-0.021,23.421-5.402,27.491l-6.858-1.42
				L379.044,384.699z"/>
			<path style="fill:#C5D7D9;" d="M376.601,381.316c-16.76-3.324-33.738-5.374-50.732-7.053
				c-13.145-1.307-25.963-3.894-39.078-4.601c-1.316-0.071-2.768-0.202-3.678-1.156c-0.65-0.682-0.882-1.649-1.09-2.568
				c-3.715-16.48-6.952-33.098-11.806-49.296c-3.985-13.297-9.17-32.062-19.776-41.876c-7.965-7.37-18.151-8.082-23.46,2.912
				c-2.464,5.103-2.18,11.057-1.656,16.699c1.987,21.408,6.693,42.557,13.915,62.806c3.531,9.9,7.663,19.585,12.373,28.981
				c3.893,7.767,6.985,17.088,13.667,22.905c6.223,5.417,12.634,4.149,20.079,4.553c7.919,0.43,15.803-0.175,23.72,0.072
				c12.367,0.385,24.736,0.867,37.111,0.744c5.608-0.056,11.216-0.112,16.823-0.167c2.896-0.029,5.792-0.057,8.688-0.086
				c2.663-0.026,4.593,0.625,6.083-1.533c4.955-7.177,5.419-19.646,4.495-27.941c-0.07-0.631-0.166-1.295-0.562-1.791
				c-0.498-0.623-1.34-0.828-2.12-0.994C378.601,381.718,377.602,381.515,376.601,381.316z"/>
			<path style="fill:#525666;" d="M218.766,447.283c0,0,127.493,18.637,164.758,52.949H128.738l-4.408-20.477L218.766,447.283z"/>
			<path style="fill:#00E3CC;" d="M223.093,265.053c-1.089,2.119-2.374,4.126-3.983,5.876c-5.094,5.539-12.727,5.939-19.827,5.657
				c-3.42-0.136-6.87-0.582-10.051-1.845c-3.924-1.558-7.258-4.31-9.916-7.618l-0.912,14.941l7.904,65.635l0.501,131.73
				c9.006-0.588,16.769-1.766,23.944-3.654c2.655-0.699,7.562-9.942,7.562-9.942s5.047,5.708,7.436,4.637
				c3.833-1.718,7.628-3.7,11.509-5.969C237.26,464.503,235.072,311.924,223.093,265.053z"/>
			<g>
				<polygon style="fill:#0079A9;" points="216.036,282.992 210.628,279.018 203.856,278.979 199.216,283.438 203.676,292.353 
					212.402,291.84 				"/>
				<polygon style="fill:#0090C9;" points="212.402,291.84 203.676,292.353 192.764,388.088 211.907,404.428 229.454,387.71 				"/>
			</g>
			<path style="fill:#05C9B1;" d="M176.132,250.874c0,0,0.285-3.14,25.423-4.237c0,0,18.631-0.589,22.449,4.356l-4.199,20.486
				l-13.139,4.968l-29.318-18.047L176.132,250.874z"/>
			<g>
				<path style="fill:#E89C58;" d="M219.657,247.427c-0.729-5.806-1.294-12.263-0.835-15.962l-42.809,0.549
					c0,0,1.762,5.52,2.943,12.566c5.133,4.343,11.885,6.844,18.65,7.292C205.169,252.372,212.712,250.539,219.657,247.427z"/>
				<path style="fill:#FFBD82;" d="M221.508,259.695c0,0-1.029-5.72-1.851-12.268c-6.945,3.112-14.488,4.945-22.05,4.445
					c-6.765-0.447-13.517-2.949-18.65-7.292c0.869,5.18,1.424,11.184,0.732,16.434l-0.373,6.108c2.658,3.308,5.992,6.06,9.916,7.618
					c3.181,1.263,6.631,1.71,10.051,1.845c7.1,0.282,14.733-0.118,19.827-5.657c1.609-1.75,2.894-3.758,3.983-5.876
					C222.588,263.076,222.06,261.282,221.508,259.695z"/>
			</g>
			<g>
				<path style="fill:#FFBD82;" d="M236.805,170.866l-0.207-0.377c-18.144-19.922-44.569-21.387-55.53-21.039
					c-2.52,0.08-4.277,2.499-3.619,4.934c4.914,18.18-0.918,31.413-4.728,37.575c-1.058,1.711-3.594,1.536-4.462-0.278
					c-6.25-13.055-13.235-2.968-13.235-2.968c-2.842,6.786-2.9,14.69-0.156,21.517c1.001,2.491,2.893,5.546,5.498,6.195
					c0,0,5.458,0.637,8.977-1.663c0,0,0.187,8.401,3.583,14.416c2.766,4.236,6.267,7.991,10.3,11.046
					c1.25,0.947,2.55,1.826,3.848,2.705c10.372,7.019,24.588,5.96,33.905-2.525c8.505-7.746,11.257-19.118,12.782-30.056
					c0.918-6.585,1.656-13.196,2.145-19.827c0.244-3.313,0.428-6.631,0.544-9.951C236.5,179.197,237.428,172.652,236.805,170.866z"
					/>
				<path style="fill:#9B5B30;" d="M239.341,149.427c1.605-0.084,3.215-0.067,4.818,0.048c1.05,0.075,2.767,0.239,3.819,0.229
					c0.982-0.009,2.034,0.291,3.022,0.147c5.489-0.803-1.002-8.339-2.291-10.166c-1.97-2.791-4.109-5.464-6.422-7.977
					c-4.617-5.017-9.95-9.418-15.942-12.699c-0.359-0.196-0.72-0.389-1.083-0.577c-11.398-5.908-24.278-6.902-36.571-2.948
					c-6.882,2.214-12.256,5.558-18.019,9.821c-0.519-2.283-1.037-4.566-1.556-6.85c-0.258-1.133-0.602-2.391-1.605-2.979
					c-0.225-0.132-0.488-0.224-0.745-0.183c-0.49,0.077-0.782,0.582-0.959,1.046c-1.265,3.324-0.224,7.031,0.823,10.43
					c-0.848-2.006-2.048-4.297-4.206-4.595c-0.298-0.041-0.632-0.028-0.855,0.174c-0.349,0.317-0.231,0.883-0.073,1.327
					c0.755,2.119,1.762,3.478,3.059,5.316c-6.89,0.833-12.63,6.195-15.489,12.519c-2.859,6.324-3.245,13.486-2.88,20.417
					c0.52,9.874,2.59,19.122,8.837,26.786c0,0,6.986-10.086,13.235,2.968c0.868,1.814,3.405,1.989,4.462,0.278
					c3.81-6.162,9.642-19.395,4.728-37.575c-0.658-2.434,1.099-4.854,3.619-4.934c10.961-0.348,37.386,1.118,55.53,21.039
					l3.506,3.139c1.005,0.903,2.655,0.876,3.416-0.339c0.368-0.587,0.479-1.295,0.564-1.982
					C244.958,164.286,244.658,154.715,239.341,149.427z"/>
				<g>
					<path style="fill:#9B5B30;" d="M160.366,216.424c0.288,1.501,0.577,3.002,0.865,4.502c0.604,3.141,1.81,7.854,5.067,9.202
						c2.483,1.027,4.421,0.43,6.506-1.138c0.04,0.063,0.081,0.125,0.122,0.187c-3.396-6.015-3.583-14.416-3.583-14.416
						C165.824,217.06,160.366,216.424,160.366,216.424z"/>
				</g>
				<g>
					<path style="fill:#C47149;" d="M211.992,188.85c0.922,2.749,1.796,5.515,2.615,8.297c0.844,2.775,1.649,5.563,2.427,8.358
						l1.148,4.197c0.096,0.336,0.193,0.723,0.247,1.198c0.051,0.46,0.032,1.082-0.287,1.665c-0.329,0.582-0.797,0.894-1.155,1.113
						c-0.363,0.201-0.693,0.375-1.053,0.536c-2.823,1.317-6.091,1.571-8.988,0.713l0.178-0.931c2.794,0.214,5.557-0.336,7.934-1.572
						c0.578-0.3,1.276-0.728,1.268-0.848c0.09-0.089,0.038-0.651-0.179-1.371l-1.103-4.191c-0.723-2.797-1.419-5.602-2.075-8.419
						c-0.681-2.81-1.309-5.636-1.887-8.48L211.992,188.85z"/>
				</g>
				<path style="fill:#623421;" d="M230.008,187.664c-0.119,1.828-1.697,3.214-3.525,3.096c-1.828-0.119-3.214-1.697-3.096-3.525
					c0.119-1.828,1.697-3.214,3.525-3.096C228.74,184.258,230.126,185.836,230.008,187.664z"/>
				<path style="fill:#623421;" d="M204.471,186.008c-0.119,1.828-1.697,3.214-3.525,3.096c-1.828-0.118-3.214-1.697-3.096-3.525
					c0.119-1.828,1.697-3.214,3.525-3.096C203.203,182.601,204.589,184.18,204.471,186.008z"/>
				<path style="fill:#7F3A17;" d="M225.07,170.166c1.163-0.11,2.303,0.22,3.322,0.721c1.021,0.507,1.973,1.122,2.817,1.85
					c1.695,1.441,2.99,3.299,3.65,5.316c0.083,0.253-0.055,0.526-0.308,0.609c-0.19,0.062-0.392,0-0.515-0.143l-0.005-0.006
					c-1.283-1.486-2.798-2.629-4.412-3.437c-0.811-0.397-1.641-0.721-2.487-0.937c-0.847-0.222-1.659-0.399-2.48-0.768l-0.104-0.047
					c-0.834-0.375-1.207-1.355-0.832-2.189C223.967,170.574,224.498,170.221,225.07,170.166z"/>
				<path style="fill:#7F3A17;" d="M203.462,171.216c-0.862,0.26-1.69,0.331-2.559,0.441c-0.866,0.105-1.731,0.319-2.587,0.608
					c-1.705,0.593-3.355,1.531-4.819,2.838l-0.006,0.005c-0.199,0.178-0.504,0.16-0.681-0.039c-0.133-0.149-0.157-0.359-0.075-0.53
					c0.916-1.915,2.44-3.59,4.307-4.8c0.931-0.613,1.954-1.1,3.032-1.471c1.075-0.366,2.248-0.545,3.387-0.286
					c0.892,0.203,1.45,1.09,1.248,1.982c-0.137,0.601-0.584,1.051-1.134,1.218L203.462,171.216z"/>
				<path style="fill:#FFFFFF;" d="M215.294,225.025c0.735-1.168-0.023-2.705-1.414-2.821c-11.779-0.988-18.219-3.467-21.356-5.149
					c-1.106-0.593-2.42,0.089-2.658,1.24C194.892,221.957,203.886,226.685,215.294,225.025z"/>
				<g>
					<path style="fill:#663731;" d="M189.866,218.294c-0.029,0.14-0.049,0.284-0.044,0.437c0.073,2.037,0.537,4.473,1.969,6.652
						c2.368-0.305,4.813-0.078,7.093,0.643c2.931,0.927,5.578,2.641,7.749,4.823c4.456-0.794,7.169-3.603,8.633-5.77
						c0.012-0.018,0.016-0.038,0.028-0.056C203.886,226.685,194.892,221.957,189.866,218.294z"/>
					<path style="fill:#FF737D;" d="M191.791,225.384c1.582,2.407,4.347,4.501,9.13,5.387c2.166,0.401,4.056,0.375,5.712,0.08
						c-2.171-2.183-4.818-3.896-7.749-4.823C196.604,225.306,194.16,225.078,191.791,225.384z"/>
				</g>
				<path style="fill:#C47149;" d="M164.819,210.037c-0.987-0.14-1.908-0.599-2.663-1.259c-0.77-0.659-1.329-1.491-1.814-2.414
					c-0.957-1.842-1.393-3.938-1.484-6.001c-0.009-0.341-0.001-0.685,0.014-1.03c1.417,2.02,3.454,3.523,5.716,4.229
					c0.208,0.064,0.439-0.032,0.535-0.235c0.105-0.222,0.01-0.488-0.212-0.593c-1.52-0.718-2.837-1.899-3.767-3.311
					c-0.473-0.717-0.851-1.495-1.138-2.305c-0.148-0.418-0.283-0.85-0.372-1.285c-0.101-0.493,0.21-0.978,0.438-1.416
					c0.906-1.754,2.41-2.836,4.546-2.963c0.184-0.011,0.35-0.135,0.405-0.322c0.07-0.238-0.066-0.489-0.313-0.561
					c-1.129-0.333-2.476-0.271-3.635,0.327c-1.162,0.585-2.054,1.596-2.598,2.68c-0.555,1.089-0.883,2.235-1.087,3.381
					c-0.199,1.145-0.283,2.308-0.223,3.473c0.105,2.322,0.781,4.597,1.932,6.616c1.102,2.015,3.191,3.813,5.659,3.874
					c0.223,0.006,0.419-0.156,0.451-0.382C165.244,210.298,165.075,210.073,164.819,210.037z"/>
			</g>
			<path style="fill:#D0E1E3;" d="M193.231,480.313c-0.355,14.799-52.276,11.051-68.824,9.48c-2.784-0.264-4.837-2.71-4.623-5.498
				l15.002-195.518c11.924-16.679,44.903-27.762,44.903-27.762S196.83,330.48,193.231,480.313z"/>
			<path style="fill:#D0E1E3;" d="M221.508,259.696c1.344,9.078,13.748,166.761,9.677,210.699c-0.224,2.418,1.91,4.396,4.303,3.984
				c6.884-1.186,19.553-4.226,28.199-11.381c2.053-1.699,3.159-4.28,3.13-6.944C266.524,429.343,261.639,282.704,221.508,259.696z"
				/>
			<path style="fill:#FFBD82;" d="M248.492,430.729c0.18-0.454,3.976-1.455,4.655-1.776c1.778-0.84,3.785-1.371,5.66-1.958
				c3.872-1.212,7.838-2.192,11.889-2.542c1.51-0.13,3.154-0.138,4.388,0.741c5.171,3.685-6.413,7.953-8.451,9.151
				c-0.879,0.517-1.781,1.073-2.339,1.926c-0.558,0.854-0.663,2.092,0.033,2.837c0.448,0.48,1.121,0.664,1.759,0.818
				c5.065,1.809,9.853,1.67,15.087,1.991c5.616,0.345,10.869-1.428,16.443-1.962c1.185-0.113,2.512-0.115,3.397,0.681
				c1.489,1.338,0.669,3.887-0.736,4.867c-1.987,1.386-4.599,1.705-6.874,2.37c-6.615,1.935-13.442,2.971-20.234,4.063
				c1.953-0.314,4.437,0.258,6.427,0.337c5.855,0.232,11.718-0.415,17.607-0.64c0.814-0.031,1.667-0.054,2.397,0.306
				c3.55,1.749,0.306,4.685-1.799,5.742c-1.967,0.988-4.128,1.541-6.279,1.957c-6.142,1.187-12.47,1.409-18.679,0.654
				c3.597,1.518,7.478,2.16,11.344,2.525c1.924,0.181,3.855,0.294,5.784,0.417c1.55,0.099,3.938-0.06,4.626,1.742
				c0.093,0.243,0.143,0.504,0.129,0.764c-0.086,1.607-2.468,2.691-3.781,3.247c-2.12,0.897-4.644,1.179-6.923,1.257
				c-6.62,0.227-13.287-1.037-19.365-3.671c2.998,2.909,6.636,4.647,10.525,6.021c2.881,1.019,5.873,1.725,8.906,2.102
				c1.089,0.135,3.026,0.768,2.28,2.247c-0.566,1.122-2.803,1.521-3.896,1.699c-8.126,1.328-15.983-1.899-22.647-6.22
				c-7.979-5.173-15.854-11.258-20.041-19.796C239.784,452.625,248.492,430.73,248.492,430.729z"/>
			<path style="fill:#00E3CC;" d="M239.828,424.902c0,0,2.196,0.12,9.331,2.831c0,0-4.708,22.943-10.795,25.853l-6.435-2.764
				L239.828,424.902z"/>
			<path style="fill:#E3F3F1;" d="M238.119,421.082c-30.709-13.179-62.992-24.454-95.867-30.035
				c6.317-20.34,10.825-41.24,13.475-62.372c1.299-10.359,2.151-20.774,2.551-31.207c0.262-6.838,2.758-18.333-5.878-21.247
				c-11.358-3.833-21.498,12.174-25.713,20.42c-10.057,19.672-14.045,41.48-18.076,62.948c-1.527,8.132-2.731,16.33-4.359,24.435
				c-1.594,7.933-2.623,16.012-2.137,24.115c0.093,1.554,0.234,3.137,0.854,4.565c2.038,4.688,7.238,8.627,11.536,11.082
				c5.256,3.002,10.902,4.561,16.482,6.713c6.411,2.472,13.175,3.94,19.903,5.436c16.943,3.765,33.834,8.241,50.797,11.53
				c5.506,1.068,11.011,2.135,16.517,3.203c2.843,0.551,5.686,1.103,8.529,1.654c2.615,0.507,4.375,1.531,6.267-0.284
				c6.292-6.041,9.241-18.164,9.996-26.477c0.057-0.632,0.096-1.302-0.193-1.867c-0.363-0.71-1.147-1.079-1.878-1.398
				C239.992,421.889,239.056,421.484,238.119,421.082z"/>
			<path style="fill:#E3F3F1;" d="M179.689,261.015c0,0,8.351,2.143,13.107,126.109l-25.659-68.673l11.157-9.439l-17.946-10.735
				C160.348,298.277,162.282,276.097,179.689,261.015z"/>
			<path style="fill:#E3F3F1;" d="M221.723,259.71c0,0,4.259,44.866,8.229,126.521l13.778-72.004l-12.582-7.434l13.015-14.439
				C244.162,292.353,238.285,263.371,221.723,259.71z"/>
			<g>
				<g>
					<g>
						<path style="fill:#B8A9A9;" d="M190.392,368.531l-3.505,0.553c0.215,1.489,0.92,7.061,1.038,8.043
							c0.162,1.348-0.588,2.564-1.364,2.812l-1.144,0.366c-0.932,0.299-1.446,1.297-1.148,2.229
							c0.299,0.933,1.298,1.447,2.229,1.148l1.143-0.366c2.525-0.807,4.16-3.65,3.803-6.613
							C191.309,375.573,190.598,369.966,190.392,368.531z"/>
						<path style="fill:#1D2842;" d="M185.79,384.541l-2.968,0.67c-1.451,0.327-2.815-0.375-3.032-1.56l-0.253-1.379
							c-0.217-1.185,0.792-2.423,2.243-2.75l2.968-0.67c1.451-0.327,2.815,0.374,3.032,1.56l0.252,1.379
							C188.25,382.976,187.241,384.214,185.79,384.541z"/>
					</g>
					<g>
						<path style="fill:#B8A9A9;" d="M147.785,374.427l3.532-0.335c0.161,1.496,0.861,7.069,0.99,8.049
							c0.177,1.346,1.206,2.338,2.02,2.385l1.199,0.071c0.978,0.058,1.723,0.897,1.665,1.874c-0.058,0.978-0.898,1.724-1.874,1.665
							l-1.198-0.071c-2.647-0.155-4.936-2.503-5.326-5.462C148.644,381.476,147.942,375.868,147.785,374.427z"/>
						<path style="fill:#1D2842;" d="M156.217,388.794l3.042-0.088c1.486-0.043,2.634-1.061,2.55-2.263l-0.098-1.398
							c-0.084-1.202-1.369-2.15-2.856-2.107l-3.041,0.088c-1.487,0.043-2.634,1.061-2.55,2.264l0.098,1.398
							C153.445,387.889,154.73,388.837,156.217,388.794z"/>
					</g>
					<g>
						<path style="fill:#292B33;" d="M173.392,327.66c-3.15-2.197-6.581-2.878-10.199-2.026
							c-17.202,4.059-17.714,29.309-15.873,48.826c0.119,1.258,1.274,2.149,2.522,1.953l0,0c1.145-0.18,1.943-1.222,1.835-2.375
							c-2.164-23.107,0.412-41.286,12.522-44.143c2.386-0.563,4.575-0.121,6.688,1.356c9.084,6.342,13.401,24.187,15.414,37.194
							c0.186,1.198,1.305,2.014,2.503,1.825l0.003,0c1.191-0.188,2.008-1.296,1.825-2.488
							C188.39,353.202,183.705,334.861,173.392,327.66z"/>
					</g>
					<path style="fill:#292B33;" d="M175.551,262.364c-2.239,1.773-4.184,3.952-5.773,6.32c-0.453,0.547-0.773,1.203-1.157,1.802
						c-0.357,0.62-0.808,1.174-1.099,1.836c-0.607,1.302-1.393,2.502-1.866,3.872c-0.521,1.342-1.137,2.641-1.486,4.053
						l-0.613,2.079l-0.307,1.038l-0.213,1.068l-0.858,4.267l-0.489,4.345c-0.065,0.726-0.202,1.443-0.208,2.176l-0.075,2.193
						l-0.163,4.387l0.161,4.402l0.079,2.202l0.04,1.101l0.115,1.099c0.15,1.465,0.321,2.928,0.452,4.396l0.208,2.201l0.104,1.101
						l0.172,1.094c0.465,2.917,0.929,5.836,1.352,8.767l0.011,0.077c0.106,0.731-0.402,1.41-1.133,1.516
						c-0.705,0.102-1.361-0.369-1.503-1.058c-0.598-2.944-1.156-5.9-1.712-8.857c-0.51-2.965-0.797-5.975-1.155-8.969l-0.127-1.124
						l-0.051-1.133l-0.102-2.266l-0.203-4.534l0.128-4.552c0.035-1.518,0.086-3.035,0.314-4.547l0.549-4.539l0.95-4.492l0.248-1.12
						l0.346-1.1l0.694-2.198c0.402-1.483,1.085-2.88,1.674-4.304c1.226-2.827,2.847-5.522,4.863-7.891
						c2.021-2.356,4.468-4.42,7.467-5.514c0.229-0.083,0.482,0.034,0.565,0.263c0.067,0.183,0.005,0.382-0.14,0.496L175.551,262.364
						z"/>
				</g>
				<g>
					<path style="fill:#292B33;" d="M226.953,262.09c3.135,0.653,5.874,2.328,8.246,4.355c0.628,0.478,1.158,1.049,1.713,1.6
						c0.534,0.568,1.113,1.107,1.594,1.718l1.429,1.85l0.706,0.933l0.613,0.989c3.324,5.242,5.691,11.049,7.034,17.022
						c0.185,0.743,0.414,1.48,0.563,2.229l0.389,2.259l0.755,4.521l0.404,4.549l0.2,2.274c0.076,0.758,0.135,1.516,0.128,2.275
						c0.033,3.033,0.139,6.073,0.019,9.098c-0.176,3.022-0.354,6.043-0.573,9.057c-0.054,0.737-0.695,1.291-1.432,1.237
						c-0.71-0.052-1.251-0.649-1.241-1.352l0.001-0.085c0.048-2.977,0.137-5.947,0.228-8.915c0.04-0.742,0.026-1.484-0.012-2.224
						l-0.08-2.221c-0.061-1.48-0.08-2.961-0.122-4.441c0.002-0.742-0.062-1.478-0.143-2.211l-0.214-2.204l-0.428-4.407l-0.767-4.345
						l-0.372-2.174c-0.137-0.721-0.352-1.421-0.524-2.133c-0.372-1.416-0.708-2.844-1.106-4.251l-1.458-4.124
						c-1.08-2.697-2.3-5.345-3.835-7.793l-0.551-0.934l-0.637-0.871l-1.257-1.758c-0.414-0.591-0.93-1.09-1.382-1.65
						c-0.461-0.551-0.901-1.128-1.432-1.608c-1.948-2.107-4.214-3.977-6.709-5.416l-0.06-0.035
						c-0.211-0.122-0.284-0.392-0.162-0.603C226.579,262.132,226.772,262.052,226.953,262.09z"/>
					<g>
						<path style="fill:#B0B0B0;" d="M258.767,325.13c-0.396,5.697-5.335,9.993-11.032,9.597c-5.696-0.396-9.993-5.335-9.597-11.032
							c0.396-5.697,5.335-9.993,11.032-9.597C254.867,314.495,259.163,319.434,258.767,325.13z"/>
						<path style="fill:#E3E3E3;" d="M256.445,324.969c-0.307,4.414-4.134,7.744-8.548,7.437c-4.414-0.307-7.743-4.134-7.436-8.548
							c0.307-4.414,4.134-7.744,8.548-7.437C253.423,316.727,256.752,320.555,256.445,324.969z"/>
						<path d="M252.685,324.707c-0.162,2.338-2.189,4.101-4.527,3.938c-2.337-0.162-4.101-2.189-3.938-4.527
							c0.163-2.337,2.189-4.101,4.527-3.938S252.848,322.37,252.685,324.707z"/>
					</g>
				</g>
			</g>
			<polygon style="fill:#00F5DC;" points="176.132,250.874 173.967,263.565 192.252,289.034 206.667,276.448 			"/>
			<polygon style="fill:#00F5DC;" points="206.667,276.448 219.855,285.184 228.689,262.84 224.005,250.994 			"/>
		</g>
	</g>
</g>
</svg>
