<?xml version="1.0" encoding="utf-8"?>
<!-- Generator: Adobe Illustrator 27.5.0, SVG Export Plug-In . SVG Version: 6.00 Build 0)  -->
<svg version="1.1" xmlns="http://www.w3.org/2000/svg" xmlns:xlink="http://www.w3.org/1999/xlink" x="0px" y="0px"
	 viewBox="0 0 750 500" style="enable-background:new 0 0 750 500;" xml:space="preserve">
<g id="BACKGROUND">
	<g>
		<rect y="-0.004" style="fill:#FFFFFF;" width="750" height="500"/>
	</g>
</g>
<g id="OBJECTS">
	<g>
		<g>
			<rect x="152.129" y="145.859" style="fill:#8BBDDB;" width="84.987" height="164.344"/>
			<rect x="157.319" y="151.825" style="fill:#B0E5FF;" width="74.609" height="152.41"/>
			<rect x="192.688" y="148.295" style="fill:#8BBDDB;" width="3.87" height="159.472"/>
			<rect x="152.692" y="226.096" style="fill:#8BBDDB;" width="83.863" height="3.87"/>
			<g>
				<rect x="152.692" y="184.703" style="fill:#8BBDDB;" width="83.863" height="3.87"/>
				<rect x="152.692" y="267.488" style="fill:#8BBDDB;" width="83.863" height="3.87"/>
			</g>
		</g>
		<g>
			<g>
				<path style="fill:#0D527C;" d="M439.511,430.569c0,0,12.361-16.71,10.731-30.64c-1.63-13.93,3.891-19.999,5.608-16.014
					c1.717,3.985-1.947,13.818-1.947,13.818s10.228-9.181,11.412-17.412c1.185-8.231,3.777-12.401,7.725-10.744
					c3.948,1.657-4.3,20.36-8.27,23.613c0,0,3.908-1.461,7.896-4.768c3.988-3.307,8.295-5.908,8.387,0.296
					c0.091,6.204-13.822,11.993-18.459,15.536c-4.637,3.543-7.058,7.224-7.058,7.224s8.872-5.938,11.568-2.324
					c2.696,3.614-16.153,8.952-23.812,22.738L439.511,430.569z"/>
				<path style="fill:#0D527C;" d="M442.011,437.885c0,0-1.131-16.318-0.864-32.6c0.267-16.282,3.939-41.923-3.506-44.06
					c-7.445-2.137-2.638,21.35-2.638,21.35s-8.013-10.941-9.081-21.488c-1.068-10.546-5.876-15.496-7.479-6.077
					c-1.603,9.419,8.013,29.106,8.013,29.106s-5.342-3.316-10.684-5.091c-5.342-1.775-6.945,9.982,0,11.048
					c6.945,1.066,14.423,12.025,14.423,12.025s-8.013-6.135-9.081,0c-1.068,6.135,14.356,14.15,16.527,35.784L442.011,437.885z"/>
				<path style="fill:#105E99;" d="M434.908,438.581c0,0,6.143-27.299,0-44.633c-6.143-17.334-2.938-27.718,0-23.327
					c2.938,4.391,2.73,18.814,2.73,18.814s6.618-16.56,5.016-27.778c-1.603-11.218-0.534-17.807,3.739-17.45
					c4.274,0.356,2.671,28.372,0,34.396c0,0,3.205-3.671,5.876-9.774c2.671-6.103,5.876-11.435,8.013-3.427
					c2.137,8.008-9.081,21.842-12.286,28.547c-3.205,6.705-4.274,12.581-4.274,12.581s6.41-11.736,10.15-8.272
					c3.739,3.464-12.286,18.956-14.957,40.324H434.908z"/>
				<path style="fill:#105E99;" d="M430.47,435.239c0,0-6.968-19.582-19.437-26.003c-12.469-6.421-14.424-14.39-10.159-13.591
					c4.265,0.799,10.38,9.327,10.38,9.327s-1.911-13.61-8.08-19.187c-6.169-5.576-8.182-10.054-4.604-12.406
					c3.578-2.351,14.495,14.931,14.979,20.04c0,0,0.968-4.058,0.45-9.213c-0.518-5.155-0.273-10.18,4.926-6.794
					c5.199,3.386,2.238,18.163,2.591,23.988c0.353,5.825,2.056,9.888,2.056,9.888s0.023-10.675,4.527-10.896
					c4.504-0.221-1.586,18.4,5.58,32.448L430.47,435.239z"/>
			</g>
			<path style="fill:#497A89;" d="M464.303,428.432h-50.748v36.9c0,2.485,2.015,4.5,4.5,4.5h41.748c2.485,0,4.5-2.015,4.5-4.5
				V428.432z"/>
			<path style="fill:#497A89;" d="M464.035,434.042h-50.213c-1.549,0-2.805-1.256-2.805-2.805l0,0c0-1.549,1.256-2.805,2.805-2.805
				h50.213c1.549,0,2.805,1.256,2.805,2.805l0,0C466.84,432.786,465.584,434.042,464.035,434.042z"/>
		</g>
		<g>
			<g>
				<polygon style="fill:#6197AD;" points="239.108,468.512 234.699,468.512 233.63,399.575 240.177,399.575 				"/>
				<g>
					<polygon style="fill:#6197AD;" points="195.938,468.508 200.897,468.508 212.657,399.575 204.49,399.575 					"/>
					<polygon style="fill:#6197AD;" points="277.87,468.508 272.91,468.508 261.15,399.575 269.317,399.575 					"/>
				</g>
				<path style="fill:#6197AD;" d="M272.107,401.444h-70.406v-10.026c0-2.864,2.321-5.185,5.185-5.185h60.036
					c2.864,0,5.185,2.321,5.185,5.185V401.444z"/>
				<path style="fill:#8BBDDB;" d="M273.369,402.567h-72.931c-0.593,0-1.074-0.481-1.074-1.074v-6.471
					c0-0.593,0.481-1.074,1.074-1.074h72.931c0.593,0,1.074,0.481,1.074,1.074v6.471
					C274.443,402.086,273.962,402.567,273.369,402.567z"/>
			</g>
			<g>
				<path style="fill:#0E3944;" d="M248.387,255.935c3.294,8.245,5.369,34.677,1.36,49.364s-22.352,26.262-32.152,14.51
					c-9.8-11.752-2.349-31.514-1.623-37.837c0,0-5.447,13.624-5.477,19.231c0,0-0.116-9.703,3.4-19.231
					c3.515-9.528-0.504-19.842,3.7-29.828C221.799,242.16,241.791,239.426,248.387,255.935z"/>
				<path style="fill:#A788E5;" d="M261.129,282.616c6.548,1.316,30.379,31.653,29.311,38.063
					c-1.068,6.41-14.033-0.555-21.136-8.568C262.201,304.098,261.129,282.616,261.129,282.616z"/>
				<path style="fill:#A788E5;" d="M213.896,333.525c1.753,0.612,3.299,4.85,0.673,8.055c-2.626,3.205-7.879,2.626-7.879,2.626
					s-10.417-1.068-8.992-6.188C199.121,332.9,211.353,332.637,213.896,333.525z"/>
				<path style="fill:#662C33;" d="M262.656,356.505c6.152,13.003,8.406,22.859,2.316,29.799
					c-7.004,7.983-39.681,9.027-49.537,1.519c-11.687-8.903,0.327-31.169,5.749-39.492L262.656,356.505z"/>
				<path style="fill:#A788E5;" d="M228.304,285.825c0,0,4.734,1.744,9.445,1.983c4.711,0.238,9.881-4.054,9.881-4.054
					s2.225,3.32,1.636,5.314c-0.589,1.994-18.3,5.464-20.79,3.12C225.985,289.843,228.304,285.825,228.304,285.825z"/>
				<path style="fill:#DDC2FF;" d="M261.911,342.034c0,0-13.079,10.249-30.66,4.395c0,0-20.642-52.606-16.903-57.855
					c1.643-2.299,6.336-2.485,11.102-1.968c0.572,0.065,1.143,0.131,1.707,0.219c5.542,0.789,10.717,2.303,10.717,2.303
					s5.404-2.723,11.385-4.69c1.637-0.537,3.314-1.027,4.936-1.378c4.799-1.066,9.075-1.005,10.284,2.011
					c1.25,3.095,0.209,6.778,3.415,23.332c0.88,4.547-4.007,13.879-4.007,13.879C262.943,333.12,261.911,342.034,261.911,342.034z"
					/>
				<path style="fill:#FF8B66;" d="M248.677,291.062c-1.776,5.441-2.94,13.074-4.768,15.077c0,0-9.709-6.434-14.428-13.407
					c-1.163-1.705-2.166-3.489-2.866-5.274c0,0,0.146-0.249,0.542-0.633c5.542,0.789,10.717,2.303,10.717,2.303
					s5.404-2.723,11.385-4.69c0.076,0.075,0.129,0.143,0.184,0.221C250.086,285.621,249.649,288.107,248.677,291.062z"/>
				<path style="fill:#EF6E4B;" d="M248.677,291.062c-3.749,2.302-7.421,3.609-7.421,3.609l-0.662,2.573l-1.758-2.21
					c-4.142-0.318-7.158-1.195-9.355-2.302c-1.163-1.705-2.166-3.489-2.866-5.274c0,0,0.146-0.249,0.542-0.633
					c5.542,0.789,10.717,2.303,10.717,2.303s5.404-2.723,11.385-4.69c0.076,0.075,0.129,0.143,0.184,0.221
					C250.086,285.621,249.649,288.107,248.677,291.062z"/>
				<path style="fill:#DDC2FF;" d="M229.635,339.539c-0.729,5.707-20.205,10.832-18.632,16.925
					c2.494,9.66,16.376,9.108,33.083,6.796c7.594-1.051,19.853,5.888,24.718-1.425c2.613-3.927-5.839-9.964-6.602-17.675
					C261.438,336.448,231.21,327.202,229.635,339.539z"/>
				<path style="fill:#EF6E4B;" d="M230.718,271.837c0,0,5.999,13.88,2.715,17.262c0,0,4.761,4.422,11.521-1.527
					c0,0-3.807-6.896-1.543-17.371C244.926,263.186,230.718,271.837,230.718,271.837z"/>
				<path style="fill:#C8AAF9;" d="M228.304,285.825c0,0,6.775,12.092,15.415,19.079c0,0,3.21-9.487,3.911-21.15
					c0,0,5.014-2.318,5.192,11.927l-4.328-1.113c0,0-0.237,6.144-4.591,11.569c0,0-9.382-6.485-12.116-10.308l-4.604,3.997
					C227.184,299.824,223.312,285.845,228.304,285.825z"/>
				<g>
					<path style="fill:#FF8B66;" d="M246.442,261.57c0,0,2.491-4.083,3.83-0.344c1.55,4.332-2.052,7.105-3.185,5.883
						C245.953,265.887,246.442,261.57,246.442,261.57z"/>
					<path style="fill:#FF8B66;" d="M240.257,280.392c7.299-1.776,10.259-7.546,6.78-21.845c-1.794-7.376-6.648-10.988-14.823-8.999
						c-8.176,1.989-10.519,7.351-8.724,14.727C227.228,279.64,232.717,282.226,240.257,280.392z"/>
					<path style="fill:#DB614D;" d="M228.266,268.276c0.05,0.765,0.867,1.334,1.823,1.271c0.956-0.063,1.691-0.734,1.64-1.499
						c-0.051-0.765-0.867-1.334-1.823-1.27C228.95,266.84,228.216,267.511,228.266,268.276z"/>
					<path style="fill:#DB614D;" d="M244.142,264.722c0.229,0.731,1.156,1.092,2.071,0.805c0.915-0.287,1.471-1.112,1.241-1.843
						c-0.229-0.732-1.157-1.092-2.071-0.805C244.468,263.165,243.913,263.99,244.142,264.722z"/>
					<g>
						<path style="fill:#0E3944;" d="M228.492,260.552c0.162,0.046,0.34-0.022,0.427-0.174c0.752-1.305,2.544-1.695,2.561-1.698
							c0.203-0.043,0.333-0.242,0.291-0.445c-0.042-0.203-0.24-0.333-0.445-0.29c-0.087,0.018-2.139,0.466-3.058,2.059
							c-0.103,0.179-0.042,0.409,0.138,0.512C228.433,260.532,228.463,260.544,228.492,260.552z"/>
					</g>
					<g>
						<path style="fill:#0E3944;" d="M238.877,256.83c0.064,0.018,0.132,0.019,0.201,0.001c0.018-0.005,1.79-0.48,3.056,0.333
							c0.175,0.113,0.407,0.062,0.519-0.113c0.111-0.174,0.061-0.406-0.114-0.519c-1.548-0.996-3.576-0.448-3.661-0.424
							c-0.2,0.055-0.316,0.261-0.261,0.462C238.653,256.7,238.754,256.796,238.877,256.83z"/>
					</g>
					<g>
						<path style="fill:#1A4850;" d="M230.727,264.424c0.221,0.906,0.808,1.542,1.311,1.419c0.504-0.123,0.733-0.956,0.513-1.863
							c-0.221-0.907-0.808-1.542-1.311-1.419C230.737,262.684,230.507,263.518,230.727,264.424z"/>
						<path style="fill:#1A4850;" d="M241.013,261.87c0.221,0.906,0.807,1.542,1.311,1.419c0.504-0.122,0.733-0.956,0.513-1.863
							c-0.22-0.907-0.808-1.542-1.311-1.419C241.022,260.129,240.793,260.963,241.013,261.87z"/>
					</g>
					<g>
						<path style="fill:#1A4850;" d="M233.127,263.363c0,0-1.208-2.071-2.046-1.698c-0.838,0.374-1.038,2.448-1.038,2.448
							l-1.463-0.371l1.337-0.146c0,0,0.19-2.159,1.056-2.374C232.207,260.917,233.127,263.363,233.127,263.363z"/>
						<path style="fill:#1A4850;" d="M240.281,261.912c0,0,0.122-2.394,1.038-2.447c0.916-0.053,2.046,1.697,2.046,1.697
							l1.129-1.002l-1.255,0.485c0,0-1.16-1.83-2.028-1.623C239.975,259.317,240.281,261.912,240.281,261.912z"/>
					</g>
					<path style="fill:#0E3944;" d="M226.048,269.465c0,0,0.292-6.561-0.703-11.337c0,0-0.02-4.417,7.238-7.047
						c7.356-2.665,11.922,0.605,11.922,0.605s2.289,7.564,3.707,13.027c0,0-0.219-2.473,0.514-4.563c0,0,0.614-20.725-17.673-16.526
						c-22.195,5.096-9.922,23.591-9.922,23.591S224.722,266.715,226.048,269.465z"/>
					<g>
						<path style="fill:#DB614D;" d="M238.427,268.079c-0.175,0.049-0.364,0.077-0.566,0.083l-0.021-0.81
							c0.69-0.018,0.929-0.383,1.007-0.686c0.111-0.429-0.052-0.894-0.272-1.024c-0.129-0.076-0.296-0.017-0.499,0.175l-0.556-0.589
							c0.677-0.639,1.251-0.411,1.468-0.282c0.556,0.329,0.838,1.175,0.644,1.925C239.472,267.479,239.037,267.907,238.427,268.079z
							"/>
					</g>
					<path style="fill:#0E3944;" d="M247.937,259.253c0,0-0.31,0.011-0.812-0.043l0.021-0.203c0,0-0.887-0.235-1.346-1.068
						c-0.406-0.737-2.692-1.549-3.964-1.004c-0.534-0.534-1.026-1.175-1.421-1.966c0.224,0.502,0.598,1.816-1.015,2.66
						c-0.609-0.128-1.25-0.342-1.88-0.406c-1.4-0.139-2.019,1.154-2.019,1.154s0.374-4.274-3.333-8.024
						c0.096,0.31,1.613,5.139-1.282,9.167c0.064-0.331,0.759-3.665,0.363-5.652c0,0-1.774,6.09-4.498,7.329
						c-2.724,1.229-6.485,3.814-6.485,3.814s-1.303-13.013,10.919-16.913C243.408,244.2,248.098,250.183,247.937,259.253z"/>
					<path style="fill:#FF8B66;" d="M224.531,267.405c0,0-4.088-2.482-3.56,1.454c0.613,4.56,5.087,5.369,5.532,3.763
						C226.949,271.015,224.531,267.405,224.531,267.405z"/>
					<path style="fill:#1A4850;" d="M240.948,273.003c0,0.824-0.387,1.492-0.864,1.492s-0.864-0.668-0.864-1.492
						c0-0.824,0.387-1.492,0.864-1.492S240.948,272.179,240.948,273.003z"/>
				</g>
				<path style="fill:#EF6E4B;" d="M267.441,387.053c-1.966,5.043-7.34,5.534-12.415,4.669c-2.414-0.417-4.765-1.143-6.645-1.816
					c-2.457-0.898-4.124-1.72-4.124-1.72s-7.521,3.333-13.291,2.853c-3.868-0.321-9.851-0.716-12.885-8.729
					c-3.024-8.013,10.513-23.91,26.005-13.462c0,0,9.081-5.053,15.31-2.564C265.625,368.783,271.554,376.476,267.441,387.053z"/>
				<path style="fill:#FF8B66;" d="M202.237,446.456c0,0-3.651,8.151-5.431,9.754c-1.781,1.603-0.534,3.26-0.534,3.26
					s-3.65,6.712-0.089,6.89c3.561,0.178,20.121,0,20.121,0l-6.499-6.143c0,0-5.198-0.343-0.151-9.297
					C214.702,441.965,202.237,446.456,202.237,446.456z"/>
				<path style="fill:#C8AAF9;" d="M196.183,466.359c0,0,3.681-9.884,12.347-9.216c8.665,0.668,10.463,9.506,8.763,11.364v1.324
					h-23.068c-0.59,0-1.068-0.478-1.068-1.068v-1.335c0-0.59,0.478-1.068,1.068-1.068H196.183z"/>
				<path style="fill:#FF8B66;" d="M237.365,443.022c0,0-2.43,11.585-4.211,13.187c-1.781,1.603-0.534,3.26-0.534,3.26
					s-3.65,6.712-0.089,6.89c3.561,0.178,20.121,0,20.121,0l-4.831-6.767c0,0-6.581-2.449-0.11-13.327
					C252.967,437.432,237.365,443.022,237.365,443.022z"/>
				<path style="fill:#C8AAF9;" d="M232.531,466.359c0,0,3.681-9.884,12.347-9.216c8.665,0.668,10.463,9.506,8.763,11.364v1.324
					h-23.068c-0.59,0-1.068-0.478-1.068-1.068v-1.335c0-0.59,0.478-1.068,1.068-1.068H232.531z"/>
				<path style="fill:#DD6245;" d="M257.793,376.967l-2.767,14.755c-2.414-0.417-4.765-1.143-6.645-1.816
					c0.94-1.304,1.549-2.543,1.741-3.675c1.581-9.434-6.036-17.383-6.036-17.383C250.667,368.377,257.793,376.967,257.793,376.967z"
					/>
				<path style="fill:#FF8B66;" d="M239.38,378.908c4.098-1.173,9.729,1.107,10.617,5.638c0.866,4.418-3.155,8.546-4.42,10
					c-4.511,5.182-37.648,59.179-37.648,59.179l-6.823-3.017c12.835-49.961,32.101-63.92,32.101-63.92
					S233.432,380.611,239.38,378.908z"/>
				<path style="fill:#FF8B66;" d="M267.127,380.008c-1.963-3.784-7.487-6.31-11.39-3.843c-3.805,2.405-4.043,8.163-4.231,10.081
					c-0.667,6.838-17.144,68.012-17.144,68.012l6.879,2.886c27.49-43.648,24.4-67.237,24.4-67.237S269.977,385.5,267.127,380.008z"
					/>
				<path style="fill:#0E3944;" d="M231.788,340.685c0,0-0.721-4.669-7.656-4.669s-7.029,4.669-7.029,4.669H231.788z"/>
				<path style="fill:#FF8B66;" d="M231.618,338.569c0,0-0.652,0.438-1.603,0c-0.962-0.438-1.325-1.902-1.325-1.902l-2.767-1.09
					c0.16,0.128,1.517,1.186,1.592,1.741c0.075,0.588-0.331,2.564-0.331,2.564s-0.983,0.876-1.207,0c0,0-0.011,0-0.021,0.011
					c-0.128,0.085-0.919,0.598-1.656-0.011c-0.577-0.47-0.78-0.716-0.855-0.812c-0.021-0.043-0.032-0.064-0.032-0.064
					s-0.182,0.502-0.556,0.566c-0.096,0.021-0.203,0.011-0.321-0.053c-0.588-0.299-2.265-1.763-2.265-1.763
					s-2.671,1.282-3.173,2.927c0,0-2.03,0.182-3.568-0.727l-9.957-0.951l6.154-6.175l6.955,1.635c0,0,5.491-1.293,6.731-1.635
					c1.25-0.342,4.541,1.613,6.079,2.468C231.03,336.155,230.443,336.368,231.618,338.569z"/>
				<path style="fill:#C8AAF9;" d="M214.348,288.574c0,0,7.654,6.031,5.877,16.946l-14.606,25.687l8.275,2.317
					c0,0-5.426-0.18-7.385,4.093c-1.959,4.274,0.178,6.588,0.178,6.588s-11.751-0.508-15.135-3.65
					C185.944,335.348,205.442,301.204,214.348,288.574z"/>
				<path style="fill:#EF6E4B;" d="M219.951,337.127c0,0,1.912,1.763,2.906,2.447c-0.096,0.021-0.203,0.011-0.321-0.053
					c-0.588-0.299-2.265-1.763-2.265-1.763s-2.671,1.282-3.173,2.927c0,0-2.03,0.182-3.568-0.727c0,0,2.105,0.652,2.821,0
					C217.066,339.307,218.883,337.309,219.951,337.127z"/>
				<path style="fill:#EF6E4B;" d="M225.955,339.894c-0.128,0.085-0.919,0.598-1.656-0.011c-0.577-0.47-0.78-0.716-0.855-0.812
					c-0.021-0.043-0.032-0.064-0.032-0.064l-2.03-2.991c0,0,3.024,2.04,3.248,2.329c0.224,0.299-0.31,1.09,0,1.453
					C224.908,340.129,225.827,339.926,225.955,339.894z"/>
				<path style="fill:#EF6E4B;" d="M227.184,339.884c0,0-0.983,0.876-1.207,0c0,0,0.257-1.282,0.214-1.752
					c-0.043-0.438-2.821-3.13-3.205-3.504c0.395,0.288,3.611,2.607,3.739,2.991C226.853,338.025,226.223,340.151,227.184,339.884z"
					/>
				<path style="fill:#C8AAF9;" d="M243.719,304.903c0,0,1.301,4.003,2.079,7.742c0.777,3.739,0.539,8.146,0.539,8.146h-0.539
					c0,0-0.678-11.513-3.873-16.071L243.719,304.903z"/>
				<path style="fill:#A788E5;" d="M247.3,306.473c0,0.648-0.525,1.173-1.174,1.173c-0.648,0-1.173-0.525-1.173-1.173
					c0-0.648,0.525-1.173,1.173-1.173C246.775,305.3,247.3,305.825,247.3,306.473z"/>
				<path style="fill:#A788E5;" d="M249.115,315.334c0,0.648-0.525,1.174-1.173,1.174c-0.648,0-1.173-0.525-1.173-1.174
					c0-0.648,0.525-1.173,1.173-1.173C248.589,314.16,249.115,314.686,249.115,315.334z"/>
				<path style="fill:#A788E5;" d="M264.471,288.846c-2.129-1.528-9.291,0.799-5.52,7.105
					C262.722,302.258,273.552,295.363,264.471,288.846z"/>
				<g>
					<path style="fill:#FF8B66;" d="M258.061,289.808c-0.459,0.171-0.951,0.267-1.474,0.288c-1.87,0.107-3.996-0.652-5.299-1.357
						c-0.246-0.128-0.449-0.256-0.63-0.374c-0.385-0.256-0.737-0.662-1.036-1.132c-0.128-0.182-0.235-0.385-0.353-0.588
						c-0.299-0.588-0.534-1.207-0.673-1.741c-0.064-0.235-0.107-0.449-0.118-0.641c-0.032-0.214-0.021-0.395,0.011-0.513
						c0.075-0.256,0.128-0.491,0.16-0.684c0.075-0.385,0.085-0.63,0.085-0.63s-1.346-1.421,1.923-3.365c0,0-5.705-2.874-5.705-4.135
						c0.011-1.218,4.765,2.19,7.874,3.387c3.098,1.197,7.105,6.945,7.105,6.945S260.464,288.879,258.061,289.808z"/>
					<path style="fill:#EF6E4B;" d="M251.319,286.144c-0.182,0.096-1.186,0.662-1.699,1.09c-0.128-0.182-0.235-0.385-0.353-0.588
						C249.973,286.464,251.137,286.176,251.319,286.144z"/>
					<path style="fill:#EF6E4B;" d="M248.648,283.067c0.075-0.385,0.085-0.63,0.085-0.63s2.115-1.806,2.564-1.528
						C251.682,281.144,249.289,282.671,248.648,283.067z"/>
					<path style="fill:#EF6E4B;" d="M248.595,284.904c-0.064-0.235-0.107-0.449-0.118-0.641c0.908-0.353,2.959-1.111,2.863-0.652
						C251.234,284.082,249.364,284.68,248.595,284.904z"/>
					<path style="fill:#EF6E4B;" d="M256.586,290.097c-1.87,0.107-3.996-0.652-5.299-1.357l1.175-1.154
						C252.462,287.586,253.99,289.637,256.586,290.097z"/>
				</g>
				<path style="fill:#FF8B66;" d="M259.93,285.268l8.547,8.547c0,0-2.048,4.123-3.828,5.712c-1.781,1.589-8.063-10.68-8.063-10.68
					L259.93,285.268z"/>
				<path style="fill:#C8AAF9;" d="M264.471,288.846c0,0,1.959,3.375,0.356,6.442c-1.603,3.067-5.876,0.663-5.876,0.663
					s15.407,26.624,20.838,29.206c5.431,2.582,9.616,0.712,10.595-3.828C291.363,316.788,272.84,297.767,264.471,288.846z"/>
			</g>
			<g>
				<polygon style="fill:#6197AD;" points="372.239,354.416 388.265,469.832 384.347,469.832 363.692,354.416 				"/>
				<polygon style="fill:#6197AD;" points="176.596,354.416 160.57,469.832 164.487,469.832 185.143,354.416 				"/>
				<path style="fill:#8BBDDB;" d="M376.488,356.762v-13.94H172.153v13.94c0,1.521,1.233,2.754,2.754,2.754h198.826
					C375.255,359.517,376.488,358.284,376.488,356.762z"/>
				<path style="fill:#6197AD;" d="M327.908,359.517l48.58-6.484v-3.717H172.153v7.447c0,1.521,1.233,2.754,2.754,2.754H327.908z"/>
				<path style="fill:#0D527C;" d="M378.882,349.32H169.76c-1.192,0-2.158-0.966-2.158-2.158v-4.319
					c0-1.192,0.966-2.158,2.158-2.158h209.122c1.192,0,2.158,0.966,2.158,2.158v4.319C381.04,348.354,380.074,349.32,378.882,349.32
					z"/>
				<path style="fill:#105E99;" d="M378.882,346.46H169.76c-1.192,0-2.158-0.966-2.158-2.158v-1.459
					c0-1.192,0.966-2.158,2.158-2.158h209.122c1.192,0,2.158,0.966,2.158,2.158v1.459C381.04,345.494,380.074,346.46,378.882,346.46
					z"/>
			</g>
		</g>
		<g>
			<path style="fill:#072228;" d="M358.445,327.469h-70.247c-1.254,0-2.178-1.008-2.064-2.251l4.396-48.027
				c0.114-1.243,1.222-2.251,2.476-2.251h70.247c1.254,0,2.178,1.008,2.064,2.251l-4.396,48.027
				C360.807,326.461,359.698,327.469,358.445,327.469z"/>
			<path style="fill:#0E3944;" d="M360.583,327.469h-70.247c-1.254,0-2.178-1.008-2.064-2.251l4.396-48.027
				c0.114-1.243,1.223-2.251,2.476-2.251h70.247c1.254,0,2.178,1.008,2.064,2.251l-4.396,48.027
				C362.945,326.461,361.837,327.469,360.583,327.469z"/>
			<polygon style="fill:#072228;" points="320.472,324.442 322.609,315.334 333.471,315.334 337.388,336.728 345.579,339.577 
				345.579,340.685 305.871,340.685 305.871,339.043 322.609,335.482 			"/>
		</g>
		<polygon style="fill:#072228;" points="301.953,340.685 301.953,337.619 251.739,337.619 239.221,339.152 239.221,340.685 		"/>
		<g>
			<rect x="95.981" y="267.399" style="fill:#6197AD;" width="4.274" height="202.433"/>
			<rect x="76.736" y="366.732" style="fill:#6197AD;" width="42.762" height="3.889"/>
			<g>
				<polygon style="fill:#8BBDDB;" points="94.909,267.399 90.635,267.399 58.564,469.832 62.837,469.832 				"/>
				<polygon style="fill:#8BBDDB;" points="101.326,267.399 105.6,267.399 137.671,469.832 133.398,469.832 				"/>
			</g>
			<rect x="66.075" y="255.935" style="fill:#105E99;" width="64.084" height="39.353"/>
			<rect x="84.397" y="255.935" style="fill:#0871B2;" width="45.763" height="39.353"/>
		</g>
		<g>
			<g>
				<defs>
					<path id="SVGID_1_" d="M666.704,271.858H379.532c-4.957,0-8.975-4.018-8.975-8.975V59.913c0-4.957,4.018-8.975,8.975-8.975
						h287.173c4.956,0,8.975,4.018,8.975,8.975v202.97C675.679,267.84,671.661,271.858,666.704,271.858z"/>
				</defs>
				<use xlink:href="#SVGID_1_"  style="overflow:visible;fill:#8BBDDB;"/>
				<clipPath id="SVGID_00000005987750704312034800000018264686879335270278_">
					<use xlink:href="#SVGID_1_"  style="overflow:visible;"/>
				</clipPath>
				
					<rect x="326.575" y="23.658" style="clip-path:url(#SVGID_00000005987750704312034800000018264686879335270278_);fill:#B0E5FF;" width="349.104" height="259.965"/>
				<polygon style="clip-path:url(#SVGID_00000005987750704312034800000018264686879335270278_);fill:#8BBDDB;" points="
					676.585,28.401 429.425,303.18 721.292,303.18 721.292,28.401 				"/>
				<g style="clip-path:url(#SVGID_00000005987750704312034800000018264686879335270278_);">
					<path style="fill:#83989E;" d="M486.04,159.847c-1.629-4.48-20.293,0.845-18.856,11.116
						C468.622,181.234,489.756,170.067,486.04,159.847z"/>
					<path style="fill:#EF6E4B;" d="M481.556,152.869c0,0,1.125,8.43,5.485,16.884l-13.05,6.918c0,0-0.518-9.545-2.617-12.634
						C469.274,160.948,481.556,152.869,481.556,152.869z"/>
					<path style="fill:#CFD8DC;" d="M535.876,138.673c-10.471,7.832-37.111,55.283-37.111,55.283l-12.726-34.109
						c0,0-6.165,13.27-18.856,11.116c0,0,5.615,53.369,22.405,57.683c16.791,4.314,54.539-42.755,54.539-42.755L535.876,138.673z"/>
					<polygon style="fill:#83989E;" points="598.823,336.513 550.579,336.513 575.15,282.108 					"/>
					<path style="fill:#CFD8DC;" d="M627.772,142.376c9.246,2.682,27.695,88.863,27.695,88.863s4.327-3.741,9.648-1.814
						l3.001,24.299c-4.912,2.133-10.714,9.891-22.196,9.472c-16.657-0.608-26.67-58.471-26.67-58.471L627.772,142.376z"/>
					<path style="fill:#83989E;" d="M665.114,229.425c-4.251-0.961-5.901,3.104-5.13,11.361c0.772,8.257,7.48,19.094,11.867,8.773
						C676.354,238.963,670.291,230.596,665.114,229.425z"/>
					<g>
						<path style="fill:#072228;" d="M479.004,528.752c0,1.685,0.172,2.871,0.172,2.871h48.695c0-0.963-0.017-1.925-0.069-2.871
							c-0.55-12.736-4.572-23.789-4.572-23.789l-12.169-5.225c-1.048,6.274-3.747,10.279-7.133,12.891
							c-0.894,0.705-1.822,1.289-2.784,1.787c-0.447,0.241-0.894,0.464-1.358,0.67c-1.014,0.464-2.063,0.842-3.111,1.152
							c-4.297,1.306-8.646,1.581-11.688,2.045C479.794,519.092,479.004,525.091,479.004,528.752z"/>
						<path style="fill:#0E3944;" d="M497.688,517.157c0,0,4.993,0.258,4.689,1.677c-0.303,1.419-4.303,3.87-8.818,4.257
							c-4.515,0.387-9.805-2.967-9.805-2.967s0.387-0.387,5.547-1.161C494.463,518.189,497.688,517.157,497.688,517.157z"/>
					</g>
					<g>
						<path style="fill:#072228;" d="M569.137,521.017c3.494-1.835,4.587-7.867,4.909-12.374h21.305
							c3.354,8.533,5.357,13.453,3.986,20.109c-0.206,0.98-0.498,1.925-0.911,2.871h-32.435c0,0-0.43-1.22-0.55-2.871
							C565.218,526.276,565.665,522.839,569.137,521.017z"/>
						<path style="fill:#0E3944;" d="M591.932,520.772c0,0-6.471-2.973-13.546-2.389c-7.075,0.584-10.81,4.257-10.515,4.644
							c2.356,3.084,10.708-1.548,16.514,0.968C590.19,526.511,591.932,520.772,591.932,520.772z"/>
					</g>
					<path style="fill:#0E3944;" d="M618.573,275.517c-3.227,97.2-15.482,179.069-16.643,213.516
						c-0.595,17.645-2.593,29.547-2.593,29.547s-16.81-13.588-26.332-3.492l0.321-15.349l1.755-9.26l4.232-171.817l-7.51-0.481
						l-35.928,171.885c0,0-7.937,22.728-8.006,30.707l-25.493-8.143l6.743-18.392l-0.704-5.199l3.398-13.423
						c0,0,31.254-183.183,29.231-201.664c0,0-0.138-3.079,1.668-3.853c14.683-6.293,62.316-3.672,75.345-1.433
						C620.395,269.067,618.573,275.517,618.573,275.517z"/>
					<path style="fill:#072228;" d="M618.058,262.229v6.437c0,0-17.698,6.851-42.909,6.851s-32.436-5.419-32.436-5.419l-0.039-6.064
						L618.058,262.229z"/>
					<path style="fill:#0E3944;" d="M596.77,263.712c0,0,0.581,7.16,0,11.805h3.677c0,0,0.968-5.806,0-11.805H596.77z"/>
					<path style="fill:#0E3944;" d="M556.153,275.643c0,0-0.091-7.183,0.806-11.777l-3.669-0.251c0,0-1.361,5.726-0.805,11.777
						L556.153,275.643z"/>
					<path style="fill:#FFFFFF;" d="M583.557,266.332v8.985c0,0.501-0.406,0.907-0.908,0.907h-15c-0.501,0-0.907-0.406-0.907-0.907
						v-8.838c0-0.498,0.401-0.903,0.899-0.907l15-0.146C583.145,265.419,583.557,265.827,583.557,266.332z"/>
					<path style="fill:#CE364C;" d="M625.67,141.569c-5.677-1.386-24.436-3.833-45.504-4.158c-21.068-0.325-36.033-0.48-44.29,1.662
						c0,0,3.702,87.792,6.798,124.961c0,0,36.296,5.921,75.384-1.806c0,0,4.617-23.224,6.062-55.591
						C626.185,160.422,625.67,141.569,625.67,141.569z"/>
					<path style="fill:#7C1C33;" d="M570.848,135.32c3.224-1.845,19.456-2.138,21.544-0.209c2.088,1.93-1.276,8.039-1.276,8.039
						l-11.207,7.612l-9.579-8.484L570.848,135.32z"/>
					<path style="fill:#EF6E4B;" d="M572.244,126.225c0,0,2.394,7.913-1.396,11.996l9.062,14.219c0,0,7.123-9.05,11.207-11.992
						c0,0-2.664-6.729,0-11.097L572.244,126.225z"/>
					<g>
						<path style="fill:#662C33;" d="M567.148,76.587c-10.306,3.089-11.03,21.087-4.762,36.955
							c6.268,15.869,33.976,3.979,37.635-1.687c3.659-5.666,9.25-27.299-0.791-33.534C579.909,66.323,567.148,76.587,567.148,76.587
							z"/>
						<path style="fill:#FF8B66;" d="M599.633,106.316c0,0,5.259-5.248,5.906,0.887c0.75,7.107-5.705,9.97-6.967,7.709
							C597.31,112.652,599.633,106.316,599.633,106.316z"/>
						<path style="fill:#FF8B66;" d="M562.808,106.686c0,0-5.258-5.248-5.906,0.887c-0.749,7.107,5.706,9.97,6.967,7.71
							C565.131,113.022,562.808,106.686,562.808,106.686z"/>
						<path style="fill:#FF8B66;" d="M562.385,101.583c0,15.528,2.942,23.609,8.143,27.433c3.019,2.245,6.812,3.05,11.24,3.05
							c4.505,0,8.252-1.13,11.147-3.855c4.629-4.304,7.106-12.602,7.106-26.628c0-11.797-5.991-19.027-19.058-19.027
							C567.897,82.556,562.385,89.786,562.385,101.583z"/>
						<path style="fill:#DB614D;" d="M566.25,109.732c-0.205,1.173,0.819,2.331,2.285,2.587c1.466,0.256,2.822-0.488,3.026-1.66
							c0.205-1.173-0.819-2.331-2.285-2.587C567.81,107.817,566.455,108.56,566.25,109.732z"/>
						<path style="fill:#DB614D;" d="M590.25,110.371c0.077,1.188,1.345,2.073,2.83,1.975c1.485-0.097,2.627-1.138,2.55-2.326
							c-0.078-1.188-1.345-2.073-2.83-1.975C591.314,108.142,590.173,109.183,590.25,110.371z"/>
						<g>
							<path style="fill:#0E3944;" d="M570.033,97.685c0.153,0.024,0.312-0.013,0.444-0.114c1.858-1.427,4.645-0.922,4.687-0.916
								c0.311,0.051,0.621-0.149,0.68-0.466c0.061-0.317-0.148-0.621-0.465-0.681c-0.122-0.027-3.345-0.604-5.611,1.138
								c-0.255,0.197-0.303,0.562-0.108,0.818C569.754,97.588,569.89,97.663,570.033,97.685z"/>
						</g>
						<g>
							<path style="fill:#0E3944;" d="M592.365,97.767c0.143-0.018,0.28-0.088,0.378-0.209c0.204-0.25,0.168-0.617-0.08-0.821
								c-2.211-1.811-5.447-1.331-5.574-1.309c-0.318,0.05-0.535,0.347-0.486,0.665c0.049,0.319,0.36,0.53,0.665,0.487
								c0.021-0.007,2.86-0.413,4.653,1.059C592.053,97.744,592.212,97.786,592.365,97.767z"/>
						</g>
						<path style="fill:#1A4850;" d="M571.239,104.271c0,1.449,0.653,2.624,1.458,2.624c0.805,0,1.458-1.175,1.458-2.624
							c0-1.449-0.653-2.624-1.458-2.624C571.892,101.648,571.239,102.822,571.239,104.271z"/>
						<path style="fill:#1A4850;" d="M586.821,104.271c0,1.449,0.652,2.624,1.457,2.624c0.805,0,1.458-1.175,1.458-2.624
							c0-1.449-0.653-2.624-1.458-2.624C587.474,101.648,586.821,102.823,586.821,104.271z"/>
						<path style="fill:#662C33;" d="M593.299,86.602c0,0-6.566,0.987-24.393-0.293c0,0-1.337,6.047-4.344,8.723
							c0,0-1.887,8.515-1.714,14.784c0,0-11.34-34.103,20.035-33.212c31.893,0.906,16.745,32.544,16.745,32.544
							s-0.189-4.829-1.23-10.186C598.397,98.962,594.168,93.517,593.299,86.602z"/>
						<g>
							<path style="fill:#DB614D;" d="M581.037,111.855l0.873-0.88l-2.308-2.293c2.238-3.164,2.226-10.487,2.224-10.813l-1.24,0.007
								c0,0.079,0.012,7.957-2.272,10.433l-0.406,0.439L581.037,111.855z"/>
						</g>
						<path style="fill:#1A4850;" d="M574.572,117.541c0,0,4.499,0.407,12.841-0.217c0,0-1.918,5.054-7.504,4.538
							C574.323,121.346,574.572,117.541,574.572,117.541z"/>
						<path style="fill:#662C33;" d="M602.123,83.664c0,0,0.177-8.158-18.905-10.814c-16.306-2.269-20.297,8.829-20.832,12.051
							s5.806,7.037,10.222,7.059l-1.909-3.15c0,0,6.925,3.128,13.918,3.15l-2.366-1.973c0,0,12.728,3.809,17.236,1.973
							C603.993,90.124,602.123,83.664,602.123,83.664z"/>
						<path style="fill:#662C33;" d="M581.645,116.041v-1.616c0,0,3.661-0.871,7.289-0.58c3.628,0.29,8.687,0.572,10.366-6.534
							l0.721,0.946c0,0,2.069,9.216-1.825,15.31v-1.668c0,0-1.707,7.781-8.46,10.166s-13.883,0-13.883,0l0.6,1.06
							c0,0-7.256-1.142-10.883-7.962v1.016c0,0-5.086-4.071-3.414-18.868l0.803-1.436c0,0,0.724,5.793,2.466,7.68
							c1.741,1.886,10.393-0.726,14.484,0.871v1.616c0,0-4.876-1.187-7.213,1.283c-2.337,2.47,1.146,7.694,3.758,8.565
							c2.612,0.871,3.455-2.177,3.455-2.177h3.655c0,0-0.084,2.612,3.032,2.467c3.117-0.145,6.797-6.246,4.005-8.855
							C587.811,114.715,581.645,116.041,581.645,116.041z"/>
						<circle style="fill:none;stroke:#0E3944;stroke-width:0.6922;stroke-miterlimit:10;" cx="588.235" cy="105.211" r="4.934"/>
						<circle style="fill:none;stroke:#0E3944;stroke-width:0.6922;stroke-miterlimit:10;" cx="572.657" cy="105.211" r="4.934"/>
						<path style="fill:none;stroke:#0E3944;stroke-width:0.6922;stroke-miterlimit:10;" d="M593.169,105.211
							c0,0,7.603,0.353,9.338-0.985"/>
						<path style="fill:none;stroke:#0E3944;stroke-width:0.6922;stroke-miterlimit:10;" d="M583.302,105.211
							c0,0-2.688-1.959-5.711,0"/>
						<path style="fill:none;stroke:#0E3944;stroke-width:0.6922;stroke-miterlimit:10;" d="M567.723,105.211
							c0,0-3.486,0.73-6.846-0.615"/>
					</g>
					<path style="fill:#FFFFFF;" d="M533.868,335.699c0,0,16.594,4.593,35.536,6.547l9.267-46.324l8.277,46.913
						c10.66,0.093,22.474-0.588,34.942-2.595c0,0-0.008-87.093,1.54-121.725c1.548-34.632,4.341-76.139,4.341-76.139
						c-4.494-3.607-30.865-4.274-30.865-4.274c-4.3,50.09-19.751,75.284-19.751,75.284s-18.714-35.505-10.471-76.164
						c0,0-27.407-1.192-30.809,1.451c0,0-2.154,13.348-2,26.616c0.108,9.32,4.378,53.22,4.378,53.22L533.868,335.699z"/>
					<path style="fill:#CFD8DC;" d="M569.181,136.697c0,0-9.57-3.056-20.601,24.037h10.876l-5.651,7.547l27.898,55.153l-2.547-9.593
						l26.444-44.533l-6.776-7.994l9.941-0.193c0,0-2.885-21.673-14.118-23.899c0,0,2.12,36.228-17.813,71.892
						C576.833,209.113,560.642,174.659,569.181,136.697z"/>
					<path style="fill:#B72E48;" d="M570.848,135.32c0,0,0.192,7.315,9.062,12.991c0,0,8.647-2.848,12.482-13.2
						c0,0,3.096,2.363,4.516,5.33c0,0,1.806,8.939,0,13.326l-9.494-7.262l-6.593,9.019l-2.148,43.251l-0.763-44.142
						c0,0-1.479-4.903-3.754-7.741l-9.91,5.155c0,0-1.859-5.634,1.441-11.219C568.039,136.847,570.848,135.32,570.848,135.32z"/>
					<rect x="544.129" y="182.601" style="fill:#CFD8DC;" width="12.714" height="3.29"/>
					<path style="fill:#CFD8DC;" d="M556.959,255.558c0,0-10.508,12.468-17.668,14.072l1.755,4.322c0,0,12.952-7.219,17.597-15.903
						L556.959,255.558z"/>
					<path style="fill:#CFD8DC;" d="M598.453,256.227c0,0,10.508,12.468,17.668,14.072l-1.755,4.322c0,0-12.952-7.219-17.597-15.903
						L598.453,256.227z"/>
					<g>
						<path style="fill:#EF6E4B;" d="M457.252,155.176c4.029,5.064,18.027,11.257,20.833,10.483
							c2.806-0.774,5.147-4.319,5.242-6.723c0.263-6.635-4.264-9.78-4.264-9.78s-4.428-8.784-7.622-10.074
							c-3.194-1.29-6.25-3.282-6.25-3.282s-1.508,2.25,0,4.056c1.508,1.806,6.507,5.419,5.297,6.451
							c-1.209,1.032-3.324,6.193-5.75,6.451C462.313,153.015,457.252,155.176,457.252,155.176z"/>
						<path style="fill:#FF8B66;" d="M466.129,154.044c0.001,0.725,0.993,3.227,0.993,3.227s1.521-4.197,1.91-4.806
							c1.293-2.025,2.248-2.799,3.448-1.913c0.725,0.535,1.206,1.489,0.345,3.451c-0.759,1.73-1.193,4.756-1.193,4.756
							s1.424-2.082,2-2.813c0.697-0.885,1.501-1.415,2.326-1.265c0.528,0.096,1.775,0.907,1.21,2.317
							c-0.27,0.674-1.436,2.213-1.468,2.588c-0.076,0.696-0.386,3.186-1.677,3.168c-1.285,0.009-2.108-1.805-2.108-1.805
							s-0.062,1.669-1.78,1.391c-1.744-0.284-2.878-2.483-2.878-2.483s-0.94,1.756-2.595,0.625
							c-1.629-1.123-2.305-3.335-2.305-3.335s-0.463,1.211-2.266,0.683c-1.126-0.347-2.538-1.392-2.837-2.655
							c-0.575-2.426-0.307-4.503,0.424-6.231c0.691-1.633,1.979-2.717,3.17-3.868c0.612-0.591,2.752,1.526,1.341,4.675
							c-0.75,1.675-1.365,2.824-0.191,5.697l0.445-4.331c0,0,1.741-3.802,3.024-4.229c0.579-0.192,2.521,0.419,2.124,3.104
							C467.409,151.214,466.127,152.985,466.129,154.044z"/>
					</g>
					<path style="fill:#7C1C33;" d="M574.155,146.892l2.977,5.548c0,0,3.422,1.156,5.943,0l4.338-5.934l2.877,2.201l-6.436,4.248
						l-3.945,8.343l0.752,40.417l-3.828,7.401l-3.032-7.779l3.813-40.039l-1.016-7.401l-4.666-5.848L574.155,146.892z"/>
					<g>
						
							<path style="fill:none;stroke:#0E3944;stroke-width:2.3073;stroke-linecap:round;stroke-linejoin:round;stroke-miterlimit:10;" d="
							M561.82,137.222c-8.438,2.163-13.795,16.093-11.334,28.427"/>
						
							<path style="fill:none;stroke:#0E3944;stroke-width:2.3073;stroke-linecap:round;stroke-linejoin:round;stroke-miterlimit:10;" d="
							M544.033,194.287c0,0-11.415-14.246-4.944-22.9c6.471-8.654,20.278-6.082,23.805-0.806c3.527,5.276-3.676,22.439-3.676,22.439
							"/>
						<path style="fill:#0E3944;" d="M543.471,193.542c0,0,1.059-1.337,2.075-1.192c1.016,0.145,1.451,3.12,0.435,3.192
							C544.965,195.614,543.79,195.75,543.471,193.542z"/>
						<path style="fill:#0E3944;" d="M559.494,192.338c0,0-2.239-2.166-2.652,0.301
							C556.429,195.106,559.513,195.084,559.494,192.338z"/>
					</g>
					<g>
						
							<path style="fill:none;stroke:#0E3944;stroke-width:2.3073;stroke-linecap:round;stroke-linejoin:round;stroke-miterlimit:10;" d="
							M602.508,138.333c0,0,6.669-0.472,8.846,14.982c2.177,15.454-9.456,40.972-9.456,40.972"/>
						<circle style="fill:#3C595E;" cx="601.898" cy="196.4" r="6.395"/>
						<path style="fill:#072228;" d="M605.095,196.4c0,1.766-1.432,3.197-3.197,3.197c-1.766,0-3.197-1.432-3.197-3.197
							c0-1.766,1.432-3.197,3.197-3.197C603.663,193.203,605.095,194.634,605.095,196.4z"/>
					</g>
				</g>
				<path style="clip-path:url(#SVGID_00000005987750704312034800000018264686879335270278_);fill:#8BBDDB;" d="M667.212,53.769
					c3.108,0,5.636,2.528,5.636,5.636v203.986c0,3.108-2.529,5.636-5.636,5.636H379.023c-3.108,0-5.636-2.528-5.636-5.636V59.405
					c0-3.108,2.528-5.636,5.636-5.636H667.212 M667.212,50.939H379.023c-4.676,0-8.467,3.791-8.467,8.467v203.986
					c0,4.676,3.791,8.467,8.467,8.467h288.189c4.676,0,8.467-3.791,8.467-8.467V59.405
					C675.679,54.729,671.888,50.939,667.212,50.939L667.212,50.939z"/>
			</g>
			<path style="fill:#B0E5FF;" d="M436.775,267.213c0,0-0.037,0.06-0.108,0.178c-0.043,0.073-0.097,0.164-0.161,0.272
				c-0.055,0.086-0.118,0.186-0.19,0.299c-0.287,0.449-0.697,1.06-1.229,1.806c-1.064,1.493-2.614,3.525-4.617,5.799
				c-1.993,2.281-4.453,4.797-7.265,7.267c-1.404,1.237-2.903,2.455-4.47,3.625c-1.571,1.166-3.197,2.299-4.885,3.33
				c-1.672,1.05-3.409,1.991-5.128,2.865c-0.874,0.406-1.741,0.81-2.598,1.208c-0.877,0.356-1.726,0.726-2.58,1.047
				c-0.863,0.303-1.697,0.62-2.529,0.886c-0.835,0.249-1.651,0.492-2.447,0.729c-0.802,0.196-1.582,0.387-2.336,0.572
				c-0.756,0.167-1.496,0.29-2.196,0.426c-1.403,0.263-2.707,0.396-3.845,0.532c-1.153,0.077-2.142,0.178-2.963,0.197
				c-1.634,0.025-2.568,0.039-2.568,0.039s0.896-0.247,2.463-0.679c0.778-0.22,1.703-0.565,2.762-0.915
				c1.044-0.41,2.223-0.845,3.459-1.427c0.617-0.296,1.263-0.582,1.915-0.914c0.642-0.346,1.306-0.704,1.989-1.072
				c0.66-0.399,1.338-0.809,2.031-1.228c0.682-0.431,1.356-0.912,2.046-1.374c0.682-0.481,1.35-1.007,2.034-1.514
				c0.658-0.543,1.323-1.092,1.994-1.646c1.3-1.156,2.583-2.351,3.784-3.628c4.855-5.058,8.573-10.978,10.847-15.557
				c1.152-2.286,1.961-4.234,2.465-5.568c0.252-0.667,0.429-1.183,0.531-1.509c0.025-0.081,0.047-0.152,0.066-0.213
				c0.008-0.041,0.015-0.075,0.02-0.102c0.005-0.039,0.044-0.144,0.037-0.129L436.775,267.213z"/>
			<g>
				<path style="fill:#105E99;" d="M545.432,42.461v39.235c0,2.84-2.302,5.151-5.141,5.151h-73.584
					c-2.849,0-5.151-2.311-5.151-5.151V42.461c0-2.84,2.302-5.141,5.151-5.141h73.584c2.576,0,4.717,1.896,5.075,4.377
					C545.413,41.942,545.432,42.197,545.432,42.461z"/>
				<path style="fill:#0871B2;" d="M545.366,41.697c-14.868,12.217-43.019,30.792-83.811,38.868V42.461
					c0-2.84,2.302-5.141,5.151-5.141h73.584C542.866,37.319,545.007,39.215,545.366,41.697z"/>
				<path style="fill:#105E99;" d="M509.477,80.239c0,0,0.027,0.045,0.081,0.132c0.032,0.054,0.072,0.122,0.12,0.202
					c0.041,0.064,0.088,0.138,0.141,0.222c0.213,0.333,0.518,0.787,0.913,1.341c0.79,1.109,1.941,2.617,3.429,4.306
					c1.48,1.694,3.307,3.562,5.395,5.396c1.042,0.918,2.155,1.823,3.319,2.692c1.167,0.866,2.374,1.707,3.628,2.473
					c1.242,0.78,2.532,1.478,3.808,2.128c0.649,0.302,1.293,0.601,1.929,0.897c0.651,0.265,1.282,0.539,1.916,0.778
					c0.641,0.225,1.26,0.461,1.878,0.658c0.62,0.185,1.226,0.365,1.817,0.542c0.595,0.146,1.175,0.288,1.735,0.425
					c0.562,0.124,1.111,0.215,1.631,0.316c1.042,0.195,2.01,0.294,2.855,0.395c0.856,0.057,1.59,0.132,2.2,0.146
					c1.214,0.018,1.907,0.029,1.907,0.029s-0.665-0.183-1.829-0.504c-0.577-0.164-1.265-0.42-2.051-0.68
					c-0.776-0.304-1.651-0.628-2.569-1.06c-0.458-0.22-0.938-0.432-1.422-0.679c-0.477-0.257-0.97-0.523-1.477-0.796
					c-0.49-0.297-0.994-0.601-1.508-0.912c-0.507-0.32-1.007-0.678-1.52-1.021c-0.506-0.357-1.003-0.748-1.51-1.124
					c-0.488-0.403-0.983-0.811-1.481-1.222c-0.966-0.858-1.919-1.746-2.81-2.694c-3.606-3.756-6.366-8.153-8.055-11.552
					c-0.856-1.697-1.456-3.144-1.831-4.135c-0.187-0.495-0.319-0.879-0.394-1.121c-0.018-0.06-0.035-0.113-0.049-0.158
					c-0.006-0.03-0.011-0.055-0.015-0.076c-0.003-0.029-0.033-0.107-0.028-0.096L509.477,80.239z"/>
				<g>
					<path style="fill:#FFFFFF;" d="M532.738,49.578h-58.49c-0.781,0-1.415-0.633-1.415-1.415s0.634-1.415,1.415-1.415h58.49
						c0.781,0,1.415,0.633,1.415,1.415S533.519,49.578,532.738,49.578z"/>
				</g>
				<g>
					<path style="fill:#FFFFFF;" d="M532.738,59.012h-58.49c-0.781,0-1.415-0.633-1.415-1.415s0.634-1.415,1.415-1.415h58.49
						c0.781,0,1.415,0.633,1.415,1.415S533.519,59.012,532.738,59.012z"/>
				</g>
				<g>
					<path style="fill:#FFFFFF;" d="M532.738,68.446h-58.49c-0.781,0-1.415-0.633-1.415-1.415s0.634-1.415,1.415-1.415h58.49
						c0.781,0,1.415,0.633,1.415,1.415S533.519,68.446,532.738,68.446z"/>
				</g>
				<g>
					<path style="fill:#FFFFFF;" d="M513.859,77.88h-39.611c-0.781,0-1.415-0.633-1.415-1.415s0.634-1.415,1.415-1.415h39.611
						c0.781,0,1.415,0.633,1.415,1.415S514.641,77.88,513.859,77.88z"/>
				</g>
			</g>
			<g>
				<path style="fill:#EF6E4B;" d="M686.459,236.238c-4.029,5.064-18.027,11.257-20.833,10.483
					c-2.806-0.774-6.676-7.807-5.386-9.838c1.29-2.031,6.23-9.514,6.23-9.514s2.606-5.935,5.8-7.225
					c3.194-1.29,6.25-3.282,6.25-3.282s1.508,2.25,0,4.056c-1.508,1.806-6.507,5.419-5.297,6.451
					c1.209,1.032,3.324,6.193,5.75,6.451C681.398,234.077,686.459,236.238,686.459,236.238z"/>
				<path style="fill:#FF8B66;" d="M677.582,235.106c-0.001,0.725-0.993,3.227-0.993,3.227s-1.521-4.197-1.91-4.806
					c-1.293-2.025-2.248-2.799-3.448-1.913c-0.725,0.536-1.207,1.489-0.345,3.451c0.759,1.73,1.193,4.756,1.193,4.756
					s-1.424-2.082-2-2.813c-0.697-0.885-1.501-1.415-2.326-1.265c-0.528,0.096-1.775,0.907-1.21,2.317
					c0.27,0.674,1.436,2.213,1.468,2.588c0.076,0.696,0.386,3.186,1.677,3.168c1.285,0.009,2.108-1.805,2.108-1.805
					s0.062,1.669,1.78,1.391c1.744-0.284,2.878-2.483,2.878-2.483s0.94,1.756,2.595,0.625c1.629-1.123,2.305-3.335,2.305-3.335
					s0.463,1.212,2.266,0.683c1.126-0.347,2.538-1.392,2.837-2.655c0.575-2.426,0.307-4.503-0.424-6.231
					c-0.691-1.633-1.979-2.717-3.17-3.868c-0.612-0.591-2.752,1.526-1.341,4.675c0.75,1.675,1.365,2.824,0.191,5.697l-0.445-4.331
					c0,0-1.741-3.802-3.024-4.229c-0.579-0.192-2.521,0.419-2.124,3.104C676.302,232.276,677.584,234.047,677.582,235.106z"/>
			</g>
			<g>
				<path style="fill:#105E99;" d="M393.404,26.961v42.405c0,2.925-2.368,5.302-5.302,5.302h-42.405
					c-2.924,0-5.302-2.377-5.302-5.302V26.961c0-2.934,2.377-5.302,5.302-5.302h42.405
					C391.037,21.659,393.404,24.027,393.404,26.961z"/>
				<path style="fill:#0871B2;" d="M393.404,26.961v6.453c-9.689,10.707-27.339,24.981-53.009,25.717v-32.17
					c0-2.934,2.377-5.302,5.302-5.302h42.405C391.037,21.659,393.404,24.027,393.404,26.961z"/>
				<g>
					<g>
						<path style="fill:#FFFFFF;" d="M366.703,61.021c-10.49,0-18.732-11.472-19.078-11.961c-0.273-0.385-0.273-0.9,0-1.285
							c0.346-0.488,8.588-11.96,19.078-11.96c10.489,0,18.731,11.472,19.078,11.96c0.272,0.385,0.272,0.9,0,1.285
							C385.434,49.549,377.191,61.021,366.703,61.021z M349.929,48.417c1.857,2.356,8.77,10.379,16.773,10.379
							c8.016,0,14.918-8.02,16.773-10.378c-1.858-2.356-8.771-10.379-16.773-10.379C358.685,38.039,351.784,46.059,349.929,48.417z"
							/>
					</g>
					<g>
						<polygon style="fill:#FFFFFF;" points="382.69,58.493 382.256,55.961 381.822,58.493 379.289,58.927 381.822,59.361 
							382.256,61.893 382.69,59.361 385.222,58.927 						"/>
					</g>
					<g>
						<polygon style="fill:#FFFFFF;" points="381.611,32.226 380.499,25.736 379.387,32.226 372.897,33.338 379.387,34.45 
							380.499,40.939 381.611,34.45 388.1,33.338 						"/>
					</g>
					<g>
						<polygon style="fill:#FFFFFF;" points="353.22,59.54 352.468,55.153 351.717,59.54 347.329,60.292 351.717,61.043 
							352.468,65.431 353.22,61.043 357.608,60.292 						"/>
					</g>
					<path style="fill:#FFFFFF;" d="M366.702,40.631c-4.301,0-7.787,3.486-7.787,7.787c0,4.301,3.486,7.787,7.787,7.787
						c4.301,0,7.787-3.486,7.787-7.787C374.489,44.117,371.003,40.631,366.702,40.631z M363.997,47.115
						c-1.024,0-1.854-0.83-1.854-1.854c0-1.024,0.83-1.854,1.854-1.854c1.024,0,1.854,0.83,1.854,1.854
						C365.851,46.285,365.021,47.115,363.997,47.115z"/>
				</g>
			</g>
			<g>
				<path style="fill:#105E99;" d="M455.018,191.856H412.61c-2.928,0-5.302,2.374-5.302,5.303v42.407
					c0,2.928,2.374,5.302,5.302,5.302h42.407c2.928,0,5.303-2.374,5.303-5.302v-42.407
					C460.32,194.23,457.946,191.856,455.018,191.856z"/>
				<path style="fill:#0871B2;" d="M460.317,197.158v6.453c-9.689,10.707-27.339,24.981-53.009,25.717v-32.169
					c0-2.934,2.377-5.302,5.302-5.302h42.405C457.949,191.856,460.317,194.224,460.317,197.158z"/>
				<g>
					<path style="fill:#FFFFFF;" d="M448.525,216.607c-1.164-0.949-2.648-1.52-4.272-1.52h-23.346c-0.445,0-0.808-0.363-0.808-0.808
						s0.363-0.808,0.808-0.808h23.346c3.723,0,6.741-3.026,6.741-6.741c0-3.715-3.018-6.741-6.741-6.741h-7.898
						c-0.445,0-0.808-0.364-0.808-0.808v-2.449c0-0.596-0.483-1.08-1.079-1.08h-3.774c-0.596,0-1.08,0.483-1.08,1.08v2.449
						c0,3.723,3.018,6.741,6.741,6.741h7.898c0.445,0,0.808,0.363,0.808,0.808c0,0.445-0.363,0.808-0.808,0.808h-23.109
						c-3.585,0-6.72,2.698-6.962,6.274c-0.266,3.925,2.848,7.208,6.725,7.208h17.324c-0.326,0.504-0.601,1.046-0.823,1.609h-16.501
						c-3.723,0-6.741,3.026-6.741,6.741c0,3.715,3.018,6.741,6.741,6.741h7.898c0.445,0,0.808,0.364,0.808,0.808v3.075
						c0,0.596,0.483,1.079,1.08,1.079h3.774c0.596,0,1.079-0.483,1.079-1.079v-3.075c0-3.723-3.018-6.741-6.741-6.741h-7.898
						c-0.445,0-0.808-0.363-0.808-0.808c0-0.445,0.363-0.808,0.808-0.808h16.063c1.153,4.854,5.909,8.334,11.285,7.438
						c4.072-0.678,7.341-3.947,8.03-8.017C457.215,222.496,453.555,217.635,448.525,216.607z M446.567,233.916
						c-3.419,0-6.318-2.255-7.283-5.354c-0.23-0.719-0.356-1.491-0.356-2.284c0-1.32,0.341-2.566,0.935-3.649
						c0.319-0.586,0.712-1.127,1.172-1.609c1.394-1.468,3.359-2.381,5.532-2.381c1.52,0,2.937,0.445,4.131,1.216
						c2.106,1.357,3.508,3.73,3.508,6.422C454.206,230.49,450.779,233.916,446.567,233.916z"/>
					<path style="fill:#FFFFFF;" d="M451.383,221.266c-0.512-0.338-1.203-0.193-1.54,0.319l-4.396,6.699l-2.144-3.484
						c-0.322-0.523-1.008-0.688-1.53-0.364c-0.523,0.322-0.686,1.007-0.364,1.53l3.061,4.974c0.199,0.324,0.551,0.524,0.931,0.529
						c0.005,0,0.011,0,0.016,0c0.374,0,0.724-0.188,0.93-0.502l5.356-8.162C452.04,222.293,451.897,221.603,451.383,221.266z"/>
				</g>
			</g>
			<g>
				<path style="fill:#105E99;" d="M449.977,96.004H407.57c-2.928,0-5.302,2.374-5.302,5.302v42.407
					c0,2.928,2.374,5.303,5.302,5.303h42.407c2.928,0,5.303-2.374,5.303-5.303v-42.407C455.28,98.378,452.906,96.004,449.977,96.004
					z"/>
				<path style="fill:#0871B2;" d="M455.277,101.305v6.453c-9.689,10.707-27.339,24.981-53.009,25.717v-32.17
					c0-2.934,2.377-5.302,5.302-5.302h42.405C452.909,96.004,455.277,98.372,455.277,101.305z"/>
				<g>
					<path style="fill:#FFFFFF;" d="M418.45,119.747l1.658-3.908c0.18-0.425,0.606-0.682,1.066-0.677
						c0.462,0.018,0.864,0.318,1.012,0.756l2.746,8.14l1.661-5.848c0.131-0.461,0.543-0.787,1.023-0.807
						c0.475-0.023,0.918,0.269,1.088,0.717l1.095,2.891l1.092-4.447c0.118-0.481,0.54-0.826,1.035-0.846
						c0.494-0.025,0.943,0.289,1.1,0.76l1.821,5.461l1.481-4.812c0.138-0.449,0.544-0.763,1.013-0.784
						c0.461-0.023,0.902,0.256,1.079,0.691l1.107,2.713h6.276c0.909-4.445-0.632-8.356-4.245-10.282
						c-7.984-4.258-12.785,4.725-12.785,4.725s-4.801-8.983-12.785-4.725c-3.613,1.927-5.154,5.837-4.245,10.282H418.45z"/>
					<path style="fill:#FFFFFF;" d="M438.781,121.971c-0.452,0-0.859-0.273-1.03-0.692l-0.213-0.521l-1.585,5.152
						c-0.142,0.462-0.567,0.78-1.05,0.785c-0.458,0.028-0.915-0.302-1.068-0.761l-1.701-5.102l-1.027,4.183
						c-0.116,0.473-0.526,0.815-1.013,0.845c-0.486,0.026-0.935-0.261-1.108-0.716l-1.171-3.092l-1.721,6.059
						c-0.133,0.469-0.556,0.796-1.043,0.808c-0.009,0-0.018,0-0.028,0c-0.476,0-0.901-0.304-1.054-0.757l-2.956-8.761l-0.802,1.892
						c-0.174,0.411-0.578,0.678-1.024,0.678h-6.795c1.973,5.241,7.237,10.873,16.382,14.73c9.145-3.857,14.408-9.488,16.382-14.73
						H438.781z"/>
				</g>
			</g>
			<g>
				<path style="fill:#105E99;" d="M325.58,88.656h-42.407c-2.928,0-5.302,2.374-5.302,5.303v42.407
					c0,2.928,2.374,5.303,5.302,5.303h42.407c2.928,0,5.302-2.374,5.302-5.303V93.958C330.882,91.03,328.508,88.656,325.58,88.656z"
					/>
				<path style="fill:#0871B2;" d="M330.881,93.958v6.453c-9.689,10.707-27.34,24.981-53.009,25.717v-32.17
					c0-2.934,2.377-5.302,5.302-5.302h42.405C328.513,88.656,330.881,91.024,330.881,93.958z"/>
				<g>
					<g>
						<path style="fill:#FFFFFF;" d="M314.836,130.776h-20.921c-0.314,0-0.613-0.133-0.824-0.365
							c-0.211-0.232-0.314-0.543-0.283-0.856c0.505-5.126,3.237-9.53,7.13-11.492c0.976-0.492,1.582-1.482,1.582-2.585v-0.56
							c0-1.103-0.606-2.093-1.582-2.586c-3.893-1.962-6.625-6.365-7.13-11.492c-0.031-0.312,0.072-0.624,0.283-0.856
							c0.211-0.233,0.51-0.365,0.824-0.365h20.921c0.314,0,0.613,0.133,0.824,0.365c0.211,0.232,0.314,0.544,0.283,0.856
							c-0.505,5.126-3.237,9.53-7.13,11.492c-0.976,0.492-1.582,1.483-1.582,2.586v0.56c0,1.103,0.606,2.094,1.582,2.585
							c3.893,1.962,6.626,6.365,7.13,11.492c0.031,0.313-0.072,0.624-0.283,0.856C315.45,130.643,315.15,130.776,314.836,130.776z
							 M295.193,128.551h18.366c-0.697-3.839-2.832-7.033-5.747-8.502c-1.731-0.872-2.806-2.624-2.806-4.572v-0.56
							c0-1.948,1.075-3.7,2.805-4.572c2.915-1.469,5.05-4.663,5.747-8.502h-18.366c0.697,3.839,2.832,7.033,5.747,8.502
							c1.731,0.872,2.806,2.624,2.806,4.572v0.56c0,1.948-1.075,3.7-2.806,4.572C298.025,121.518,295.89,124.712,295.193,128.551z"
							/>
					</g>
					<g>
						<path style="fill:#FFFFFF;" d="M315.067,101.844h-21.383c-1.058,0-1.916-0.858-1.916-1.916l0,0
							c0-1.058,0.858-1.916,1.916-1.916h21.383c1.058,0,1.916,0.858,1.916,1.916l0,0
							C316.983,100.986,316.126,101.844,315.067,101.844z"/>
					</g>
					<g>
						<path style="fill:#FFFFFF;" d="M315.068,132.312h-21.383c-1.058,0-1.916-0.858-1.916-1.916l0,0
							c0-1.058,0.858-1.916,1.916-1.916h21.383c1.058,0,1.916,0.858,1.916,1.916l0,0
							C316.983,131.454,316.126,132.312,315.068,132.312z"/>
					</g>
					<g>
						<path style="fill:#FFFFFF;" d="M299.961,107.375c0.553,0.539,1.161,0.986,1.814,1.314c0.702,0.354,1.334,0.821,1.871,1.376
							c0.406,0.42,1.053,0.42,1.46,0c0.538-0.555,1.169-1.022,1.871-1.375c0.653-0.329,1.26-0.776,1.814-1.315l0,0
							c-0.223-0.873-1.009-1.484-1.91-1.484h-5.007c-0.87,0-1.637,0.57-1.888,1.403L299.961,107.375z"/>
					</g>
					<g>
						<path style="fill:#FFFFFF;" d="M297.869,126.09c-0.088,0.198-0.171,0.401-0.249,0.607h13.512
							c-0.078-0.207-0.161-0.409-0.249-0.607c-0.457-1.027-1.511-1.658-2.635-1.658h-7.744
							C299.38,124.432,298.326,125.063,297.869,126.09z"/>
					</g>
				</g>
			</g>
			<g>
				<path style="fill:#105E99;" d="M375.711,155.035h-42.407c-2.928,0-5.302,2.374-5.302,5.303v42.407
					c0,2.928,2.374,5.302,5.302,5.302h42.407c2.928,0,5.302-2.374,5.302-5.302v-42.407
					C381.013,157.409,378.639,155.035,375.711,155.035z"/>
				<path style="fill:#0871B2;" d="M381.01,160.337v6.453c-9.689,10.707-27.339,24.981-53.009,25.717v-32.169
					c0-2.934,2.377-5.302,5.302-5.302h42.405C378.642,155.035,381.01,157.403,381.01,160.337z"/>
				<g>
					<g>
						<path style="fill:#FFFFFF;" d="M346.884,200.373c-20.921,0,0-37.666,0-37.666s2.521,4.539,4.939,10.472
							c-1.083,1.669-1.713,3.656-1.713,5.792c0,4.205,2.432,7.846,5.977,9.574C356.673,195.123,354.693,200.373,346.884,200.373z"/>
					</g>
					<g>
						<path style="fill:#FFFFFF;" d="M360.769,190.741c-6.492,0-11.773-5.281-11.773-11.773s5.281-11.773,11.773-11.773
							c6.492,0,11.773,5.281,11.773,11.773S367.261,190.741,360.769,190.741z M360.769,169.42c-5.265,0-9.548,4.283-9.548,9.548
							s4.283,9.548,9.548,9.548s9.548-4.283,9.548-9.548S366.034,169.42,360.769,169.42z"/>
					</g>
					<g>
						<polygon style="fill:#FFFFFF;" points="366.903,177.508 362.376,177.508 362.376,172.981 359.455,172.981 359.455,177.508 
							354.928,177.508 354.928,180.429 359.455,180.429 359.455,184.956 362.376,184.956 362.376,180.429 366.903,180.429 						"/>
					</g>
				</g>
			</g>
		</g>
		<path style="fill:#662C33;" d="M226.64,391.722c-1.027-5.489,7.709-11.66,11.863-10.917c10.094,1.804,8.172,3.139,13.527,1.535
			c5.356-1.604,12.571-4.954,17.48,4.589c2.677-4.92-3.522-22.608-3.522-22.608s0.148,1.858-4.838,1.576
			c-4.985-0.283-7.132-1.975-13.121-1.576c-5.989,0.399-23.957,0.292-28.128,2.859c-4.171,2.567-6.254,13.476-3.929,16.577
			S226.64,391.722,226.64,391.722z"/>
		<path style="fill:#662C33;" d="M270.181,383.7c0.006,4.855-0.917,5.902-4.539,6.206c1.8-2.854,2.722-4.607,2.92-7.691
			c-0.716-1.371,0.949,0,0.949,0L270.181,383.7z"/>
	</g>
</g>
</svg>
